<?xml version="1.0" encoding="UTF-8"?><svg id="Camada_2" xmlns="http://www.w3.org/2000/svg" viewBox="0 0 3789.73 1253.33"><defs><style>.cls-1,.cls-2,.cls-3,.cls-4,.cls-5,.cls-6,.cls-7{fill:none;stroke-linecap:round;stroke-linejoin:round;stroke-width:8px;}.cls-1,.cls-2,.cls-4,.cls-5,.cls-6,.cls-7{stroke:#cd5257;}.cls-8,.cls-9,.cls-10{fill:#fff;}.cls-2{stroke-dasharray:0 0 4.87 19.49;}.cls-11{letter-spacing:-.03em;}.cls-3{stroke:#0071bc;}.cls-12{fill:#cd5257;}.cls-4{stroke-dasharray:0 0 5 20.01;}.cls-9{font-size:36px;}.cls-9,.cls-10,.cls-13{font-family:AllRoundGothic-Demi, 'All Round Gothic';}.cls-14{fill:#c1272d;}.cls-15{fill:#33c2ae;}.cls-16{fill:#4d4d4d;}.cls-10,.cls-13{font-size:24px;}.cls-17{fill:#911d22;}.cls-18{fill:#0c95e8;}.cls-19{letter-spacing:0em;}.cls-20{fill:#d4145a;}.cls-21{fill:#39b54a;}.cls-5{stroke-dasharray:0 0 4.96 19.84;}.cls-22{fill:#0071bc;}.cls-23{fill:#edc317;}.cls-6{stroke-dasharray:0 0 5.03 20.12;}.cls-24{letter-spacing:-.01em;}.cls-7{stroke-dasharray:0 0 4.97 19.86;}</style></defs><g id="Game_mechanics"><g id="Core_loop"><circle class="cls-21" cx="122.44" cy="389.47" r="122.44"/><g><line class="cls-3" x1="798.79" y1="390.91" x2="889.62" y2="390.91"/><path class="cls-22" d="M848.99,419.71c-.89-1.39-.47-3.25,.93-4.14l38.71-24.66-38.71-24.66c-1.4-.89-1.82-2.75-.93-4.14s2.76-1.8,4.15-.92l42.69,27.19c.86,.55,1.39,1.51,1.39,2.53s-.53,1.98-1.39,2.53l-42.69,27.19c-.5,.32-1.06,.47-1.61,.47-.99,0-1.96-.49-2.54-1.39Z"/></g><g><line class="cls-3" x1="309.96" y1="390.91" x2="400.79" y2="390.91"/><path class="cls-22" d="M360.16,419.71c-.89-1.39-.47-3.25,.93-4.14l38.71-24.66-38.71-24.66c-1.4-.89-1.82-2.75-.93-4.14,.89-1.39,2.76-1.8,4.15-.92l42.69,27.19c.86,.55,1.39,1.51,1.39,2.53s-.53,1.98-1.39,2.53l-42.69,27.19c-.5,.32-1.06,.47-1.61,.47-.99,0-1.96-.49-2.54-1.39Z"/></g><text class="cls-9" transform="translate(21.28 401.24)"><tspan x="0" y="0">Game start</tspan></text><circle class="cls-14" cx="3667.29" cy="223.79" r="122.44"/><g><line class="cls-3" x1="3388.52" y1="225.23" x2="3479.34" y2="225.23"/><path class="cls-22" d="M3438.72,254.03c-.89-1.39-.47-3.25,.93-4.14l38.71-24.66-38.71-24.66c-1.4-.89-1.82-2.75-.93-4.14s2.76-1.8,4.15-.92l42.69,27.19c.86,.55,1.39,1.51,1.39,2.53s-.53,1.98-1.39,2.53l-42.69,27.19c-.5,.32-1.06,.47-1.61,.47-.99,0-1.96-.49-2.54-1.39Z"/></g><text class="cls-9" transform="translate(3579.77 235.56)"><tspan x="0" y="0">Game end</tspan></text><rect id="Screen" class="cls-15" x="939.56" y="331.36" width="282.98" height="116.21" rx="38.26" ry="38.26"/><text class="cls-10" transform="translate(988.45 383.59)"><tspan x="0" y="0">Player balances </tspan><tspan x="35.06" y="28.8">spaceship</tspan></text><rect id="Screen-2" class="cls-15" x="1902.07" y="331.36" width="282.98" height="116.21" rx="38.26" ry="38.26"/><text class="cls-10" transform="translate(1960.89 369.19)"><tspan x="0" y="0">Player dodges </tspan><tspan x="-26.54" y="28.8">enemie</tspan><tspan class="cls-19" x="56.38" y="28.8">s</tspan><tspan x="67.66" y="28.8">, obstacles </tspan><tspan x="19" y="57.6">and bullets</tspan></text><rect id="Screen-3" class="cls-20" x="1902.07" y="165.68" width="282.98" height="116.21" rx="38.26" ry="38.26"/><text class="cls-10" transform="translate(1961.76 203.51)"><tspan x="0" y="0">Player </tspan><tspan class="cls-24" x="81.91" y="0">f</tspan><tspan x="93.5" y="0">ails to </tspan><tspan x="-13.28" y="28.8">dodges enemie</tspan><tspan class="cls-19" x="159.47" y="28.8">s</tspan><tspan x="170.75" y="28.8">, </tspan><tspan x="-32.35" y="57.6">obstacles or bullets</tspan></text><rect id="Screen-4" class="cls-20" x="1902.07" width="282.98" height="116.21" rx="38.26" ry="38.26"/><text class="cls-10" transform="translate(1961.76 52.22)"><tspan x="0" y="0">Player </tspan><tspan class="cls-24" x="81.91" y="0">f</tspan><tspan x="93.5" y="0">ails to </tspan><tspan x="-24.88" y="28.8">balance spaceship</tspan></text><g><polyline class="cls-3" points="2043.56 475.48 2043.56 668.14 1757.3 668.14"/><path class="cls-22" d="M1797.93,639.34c.89,1.39,.47,3.25-.93,4.14l-38.71,24.66,38.71,24.66c1.4,.89,1.82,2.75,.93,4.14s-2.76,1.8-4.15,.92l-42.69-27.19c-.86-.55-1.39-1.51-1.39-2.53s.53-1.98,1.39-2.53l42.69-27.19c.5-.32,1.06-.47,1.61-.47,.99,0,1.96,.49,2.54,1.39Z"/></g><g><polyline class="cls-3" points="1375.48 666.72 1081.05 666.72 1081.05 475.48"/><path class="cls-22" d="M1109.85,516.11c-1.39,.89-3.25,.47-4.14-.93l-24.66-38.71-24.66,38.71c-.89,1.4-2.75,1.82-4.14,.93-1.39-.89-1.8-2.76-.92-4.15l27.19-42.69c.55-.86,1.51-1.39,2.53-1.39s1.98,.53,2.53,1.39l27.19,42.69c.32,.5,.47,1.06,.47,1.61,0,.99-.49,1.96-1.39,2.54Z"/></g><g><polyline class="cls-3" points="599.96 303.45 599.96 58.1 1852.14 58.1"/><path class="cls-22" d="M1811.51,86.9c-.89-1.39-.47-3.25,.93-4.14l38.71-24.66-38.71-24.66c-1.4-.89-1.82-2.75-.93-4.14s2.76-1.8,4.15-.92l42.69,27.19c.86,.55,1.39,1.51,1.39,2.53s-.53,1.98-1.39,2.53l-42.69,27.19c-.5,.32-1.06,.47-1.61,.47-.99,0-1.96-.49-2.54-1.39Z"/></g><g><polyline class="cls-3" points="1569.88 303.45 1569.88 223.79 1852.14 223.79"/><path class="cls-22" d="M1811.51,252.58c-.89-1.39-.47-3.25,.93-4.14l38.71-24.66-38.71-24.66c-1.4-.89-1.82-2.75-.93-4.14s2.76-1.8,4.15-.92l42.69,27.19c.86,.55,1.39,1.51,1.39,2.53s-.53,1.98-1.39,2.53l-42.69,27.19c-.5,.32-1.06,.47-1.61,.47-.99,0-1.96-.49-2.54-1.39Z"/></g><g><line class="cls-3" x1="2234.99" y1="223.79" x2="2517.25" y2="223.79"/><path class="cls-22" d="M2476.62,252.58c-.89-1.39-.47-3.25,.93-4.14l38.71-24.66-38.71-24.66c-1.4-.89-1.82-2.75-.93-4.14s2.76-1.8,4.15-.92l42.69,27.19c.86,.55,1.39,1.51,1.39,2.53s-.53,1.98-1.39,2.53l-42.69,27.19c-.5,.32-1.06,.47-1.61,.47-.99,0-1.96-.49-2.54-1.39Z"/></g><rect id="Screen-5" class="cls-18" x="1424.9" y="608.59" width="282.98" height="116.21"/><text class="cls-10" transform="translate(1479.43 675.22)"><tspan x="0" y="0">Score increase</tspan></text><polygon id="Screen-6" class="cls-17" points="1672.31 1253.33 1389.33 1253.33 1440.59 1137.13 1723.57 1137.13 1672.31 1253.33"/><text class="cls-10" transform="translate(1450.07 1203.75)"><tspan x="0" y="0">Player Score Data</tspan></text><rect id="Screen-7" class="cls-23" x="465.87" y="331.36" width="282.98" height="116.21"/><text class="cls-10" transform="translate(499.09 383.59)"><tspan x="0" y="0">Spaceship is pulled </tspan><tspan x="47.54" y="28.8">by gr</tspan><tspan class="cls-11" x="109.49" y="28.8">a</tspan><tspan x="123.45" y="28.8">vity</tspan></text><g><line class="cls-3" x1="1761.31" y1="390.91" x2="1852.14" y2="390.91"/><path class="cls-22" d="M1811.51,419.71c-.89-1.39-.47-3.25,.93-4.14l38.71-24.66-38.71-24.66c-1.4-.89-1.82-2.75-.93-4.14s2.76-1.8,4.15-.92l42.69,27.19c.86,.55,1.39,1.51,1.39,2.53s-.53,1.98-1.39,2.53l-42.69,27.19c-.5,.32-1.06,.47-1.61,.47-.99,0-1.96-.49-2.54-1.39Z"/></g><g><line class="cls-3" x1="1272.48" y1="390.91" x2="1363.3" y2="390.91"/><path class="cls-22" d="M1322.67,419.71c-.89-1.39-.47-3.25,.93-4.14l38.71-24.66-38.71-24.66c-1.4-.89-1.82-2.75-.93-4.14s2.76-1.8,4.15-.92l42.69,27.19c.86,.55,1.39,1.51,1.39,2.53s-.53,1.98-1.39,2.53l-42.69,27.19c-.5,.32-1.06,.47-1.61,.47-.99,0-1.96-.49-2.54-1.39Z"/></g><rect id="Screen-8" class="cls-23" x="1428.39" y="331.36" width="282.98" height="116.21"/><text class="cls-10" transform="translate(1487.12 369.19)"><tspan x="0" y="0">Obstacles and </tspan><tspan x="-9.79" y="28.8">enemies appear </tspan><tspan x="27.33" y="57.6">gradually</tspan></text><g><line class="cls-3" x1="2900.11" y1="225.23" x2="2990.93" y2="225.23"/><path class="cls-22" d="M2950.3,254.03c-.89-1.39-.47-3.25,.93-4.14l38.71-24.66-38.71-24.66c-1.4-.89-1.82-2.75-.93-4.14s2.76-1.8,4.15-.92l42.69,27.19c.86,.55,1.39,1.51,1.39,2.53s-.53,1.98-1.39,2.53l-42.69,27.19c-.5,.32-1.06,.47-1.61,.47-.99,0-1.96-.49-2.54-1.39Z"/></g><rect id="Screen-9" class="cls-16" x="3056.02" y="165.68" width="282.98" height="116.21"/><text class="cls-10" transform="translate(3111.23 217.9)"><tspan x="0" y="0">Match score is </tspan><tspan x="31.09" y="28.8">displayed</tspan></text><rect id="Screen-10" class="cls-16" x="2583.17" y="165.68" width="282.98" height="116.21"/><text class="cls-10" transform="translate(2632.57 232.31)"><tspan x="0" y="0">The match ends</tspan></text><polyline class="cls-3" points="2234.99 58.1 2376.12 58.1 2376.12 223.79"/><g><line class="cls-1" x1="1569.9" y1="755.35" x2="1569.91" y2="757.85"/><line class="cls-6" x1="1569.97" y1="777.97" x2="1571.05" y2="1094.8"/><line class="cls-1" x1="1571.08" y1="1104.86" x2="1571.09" y2="1107.36"/><path class="cls-12" d="M1550.79,782.75c.93,.59,2.17,.31,2.76-.63l16.35-25.86,16.52,25.75c.6,.93,1.84,1.2,2.76,.61,.93-.6,1.19-1.84,.6-2.77l-18.22-28.4c-.37-.57-1.01-.92-1.69-.92-.68,0-1.32,.36-1.68,.93l-18.03,28.52c-.21,.34-.31,.71-.31,1.08,0,.66,.33,1.31,.93,1.69Z"/><path class="cls-12" d="M1551.8,1080.09c.93-.6,2.17-.32,2.76,.61l16.52,25.75,16.35-25.86c.59-.94,1.83-1.22,2.76-.63,.93,.59,1.21,1.84,.62,2.76l-18.03,28.52c-.37,.58-1,.93-1.68,.93-.68,0-1.32-.35-1.69-.92l-18.22-28.4c-.21-.33-.31-.71-.32-1.07,0-.66,.32-1.31,.92-1.69Z"/></g><polygon id="Screen-11" class="cls-17" points="1184.59 1253.33 901.6 1253.33 952.87 1137.13 1235.85 1137.13 1184.59 1253.33"/><text class="cls-10" transform="translate(974.14 1203.75)"><tspan x="0" y="0">High Score Data</tspan></text><g><line class="cls-1" x1="1570.96" y1="857.28" x2="1568.46" y2="857.28"/><line class="cls-2" x1="1548.97" y1="857.28" x2="1095.82" y2="857.28"/><polyline class="cls-1" points="1086.08 857.28 1083.58 857.28 1083.57 859.78"/><line class="cls-4" x1="1083.56" y1="879.79" x2="1083.39" y2="1094.86"/><line class="cls-1" x1="1083.39" y1="1104.86" x2="1083.38" y2="1107.36"/><path class="cls-12" d="M1064.21,1080c.93-.59,2.17-.31,2.76,.62l16.42,25.82,16.46-25.8c.59-.93,1.83-1.21,2.76-.61,.93,.59,1.2,1.84,.61,2.77l-18.15,28.44c-.37,.57-1,.93-1.69,.92-.68,0-1.32-.35-1.69-.93l-18.1-28.47c-.21-.34-.31-.71-.31-1.07,0-.66,.33-1.31,.93-1.69Z"/></g><g><line class="cls-1" x1="1757.3" y1="1204.06" x2="1759.8" y2="1204.06"/><line class="cls-7" x1="1779.67" y1="1204.06" x2="3184.98" y2="1204.06"/><polyline class="cls-1" points="3194.91 1204.06 3197.41 1204.06 3197.41 1201.56"/><line class="cls-5" x1="3197.42" y1="1181.72" x2="3197.6" y2="348.59"/><line class="cls-1" x1="3197.61" y1="338.67" x2="3197.61" y2="336.17"/><path class="cls-12" d="M3216.8,363.51c-.93,.59-2.17,.32-2.76-.62l-16.43-25.81-16.44,25.8c-.59,.93-1.83,1.21-2.76,.62-.93-.59-1.2-1.84-.61-2.77l18.13-28.45c.37-.57,1-.93,1.69-.92,.68,0,1.32,.35,1.69,.93l18.12,28.46c.21,.34,.31,.71,.31,1.07,0,.66-.33,1.31-.93,1.69Z"/></g><rect class="cls-8" x="967.64" y="960.18" width="231.47" height="88.93"/><text class="cls-13" transform="translate(1002.57 996.23)"><tspan x="0" y="0">If higher than</tspan><tspan x="-3.37" y="28.8">the high score</tspan></text></g></g></svg>