<?xml version="1.0" encoding="UTF-8"?><svg id="Camada_2" xmlns="http://www.w3.org/2000/svg" viewBox="0 0 285.98 614.71"><defs><style>.cls-1{fill:aqua;}.cls-2{font-family:AllRoundGothic-Demi, 'All Round Gothic';font-size:24.22px;}.cls-2,.cls-3{fill:#a67c52;}.cls-4{fill:#77f6ec;}.cls-5{fill:#d4145a;}.cls-6{fill:none;stroke:#000;}.cls-6,.cls-7{stroke-miterlimit:10;stroke-width:3px;}.cls-8{fill:#1f2121;}.cls-7{fill:#29abe2;stroke:aqua;}.cls-9{fill:#f9bda7;}.cls-10{fill:#fcd4a5;}.cls-11{fill:#f9a94b;}</style></defs><g id="Game_mechanics"><g id="Destructible_obstacles"><polygon class="cls-11" points="232.69 105.37 227.7 105.37 207.88 108.25 202.18 105.37 194.17 105.37 188.64 104.04 186.98 105.37 178.07 105.37 176.01 107.59 170.56 105.37 160.66 105.37 155.53 104.37 150.49 105.37 143.44 105.37 134.39 107.59 124.37 105.37 124.37 44.36 132.44 42.36 142.65 44.36 150.78 44.36 154.52 47.75 158.38 44.36 165.81 44.36 169.73 45.66 174.93 44.36 184.76 44.36 190.53 42.36 194.05 44.36 202.71 44.36 212.62 46.54 222.19 44.36 232.69 44.36 232.69 105.37"/><polygon class="cls-4" points="88.83 417.59 106.24 435 88.83 422.93 71.42 435 88.83 417.59"/><polygon class="cls-4" points="88.83 408.88 106.24 426.3 88.83 414.22 71.42 426.3 88.83 408.88"/><polygon class="cls-4" points="88.83 400.18 106.24 417.59 88.83 405.51 71.42 417.59 88.83 400.18"/><path class="cls-3" d="M1.5,375.98H21.46c7.29,0,13.21,5.92,13.21,13.21v56.15c0,7.29-5.92,13.21-13.21,13.21H1.5v-82.57h0Z"/><path class="cls-3" d="M142.99,375.98h128.28c7.29,0,13.21,5.92,13.21,13.21v56.15c0,7.29-5.92,13.21-13.21,13.21H142.99v-82.57h0Z" transform="translate(427.47 834.53) rotate(180)"/><g id="Spaceship"><g><rect class="cls-1" x="80.6" y="461.74" width="14.28" height="12.54"/><path class="cls-8" d="M95.59,475.26h-15.67v-14.49h15.67v14.49Zm-14.3-1.95h12.88v-10.59h-12.88v10.59Z"/></g><g><polygon class="cls-1" points="97.19 474.05 107.56 458.66 107.56 448.07 97.19 458.88 97.19 474.05"/><path class="cls-8" d="M108.26,446.33v12.54l-11.77,17.44v-17.72l11.77-12.27Zm-1.39,12.13v-8.66l-8.98,9.38v12.6l8.98-13.32Z"/></g><g><polygon class="cls-5" points="107.56 468.87 107.56 440.94 112.28 445.68 112.28 453.88 107.56 468.87"/><path class="cls-8" d="M106.86,439.27l6.11,6.11v8.6l-6.11,19.43v-34.15Zm4.72,6.69l-3.33-3.33v21.72l3.33-10.57v-7.83Z"/></g><g><polygon class="cls-5" points="92.71 431.3 87.75 414.84 82.81 431.3 78.33 447.69 78.33 462.86 87.75 472.74 97.17 462.86 97.17 447.69 92.71 431.3"/><path class="cls-8" d="M87.75,473.75l-10.11-10.61v-15.53l.02-.1,4.48-16.39,5.61-18.72,5.61,18.7,4.5,16.49v15.53l-10.11,10.63Zm-8.72-11.17l8.72,9.16,8.72-9.16v-14.79l-4.44-16.29-4.26-14.24-4.28,14.26-4.44,16.27v14.79h-.02Z"/></g><g><polygon class="cls-1" points="91.53 449.54 87.75 443.05 83.99 449.54 80.56 456.01 80.56 462 87.75 465.91 94.96 462 94.96 456.01 91.53 449.54"/><path class="cls-8" d="M87.75,466.7l-7.88-4.28v-6.57l3.5-6.65,4.38-7.55,4.4,7.57,3.5,6.63v6.57l-7.9,4.28Zm-6.49-5.12l6.49,3.52,6.49-3.52v-5.4l-3.33-6.31-3.17-5.46-3.17,5.46-3.33,6.31v5.4Z"/></g><g><polygon class="cls-1" points="78.35 474.05 67.98 458.66 67.98 448.07 78.35 458.88 78.35 474.05"/><path class="cls-8" d="M67.28,446.33l11.77,12.29v17.72l-11.77-17.44v-12.56Zm10.37,12.84l-8.98-9.38v8.66l8.98,13.32v-12.6Z"/></g><g><polygon class="cls-5" points="67.98 468.87 67.98 440.94 63.24 445.68 63.24 453.88 67.98 468.87"/><path class="cls-8" d="M68.67,439.27v34.15l-6.11-19.43v-8.6l6.11-6.11Zm-1.39,25.09v-21.72l-3.33,3.33v7.81l3.33,10.59Z"/></g><g><polygon class="cls-1" points="83.51 428.95 85.44 432.64 83.51 441.32 79.41 443.79 83.51 428.95"/><path class="cls-8" d="M78.27,445.28l5.06-18.22,2.87,5.48-2.05,9.22-5.87,3.52Zm5.46-14.44l-3.17,11.45,2.35-1.41,1.81-8.14-1-1.89Z"/></g><g><polygon class="cls-1" points="91.99 428.95 90.06 432.64 91.99 441.32 96.11 443.79 91.99 428.95"/><path class="cls-8" d="M97.25,445.28l-5.87-3.52-2.05-9.22,2.87-5.48,5.06,18.22Zm-4.64-4.4l2.35,1.41-3.17-11.45-1,1.89,1.81,8.14Z"/></g><g><rect class="cls-1" x="63.26" y="448.07" width="4.72" height="5.81"/><path class="cls-8" d="M62.54,447.37h6.11v7.21h-6.11v-7.21Zm4.74,1.39h-3.33v4.42h3.33v-4.42Z"/></g><g><rect class="cls-1" x="107.56" y="448.07" width="4.72" height="5.81"/><path class="cls-8" d="M106.86,447.37h6.11v7.21h-6.11v-7.21Zm4.72,1.39h-3.33v4.42h3.33v-4.42Z"/></g><rect class="cls-8" x="87.05" y="414.84" width="1.39" height="14.63"/><rect class="cls-8" x="87.05" y="431" width="1.39" height="2.57"/><rect class="cls-8" x="87.05" y="435.52" width="1.39" height="1.85"/><g><polygon class="cls-5" points="100.37 469.33 100.37 465.23 102.62 462.02 105.53 461.67 100.37 469.33"/><path class="cls-8" d="M106.98,460.77l-7.31,10.83v-6.59l2.57-3.64,4.74-.6Zm-5.91,6.27l3.05-4.5-1.1,.14-1.95,2.77v1.59Z"/></g><g><polygon class="cls-5" points="75.17 469.33 75.17 465.23 72.92 462.02 69.99 461.67 75.17 469.33"/><path class="cls-8" d="M68.56,460.77l4.74,.6,2.57,3.64v6.59l-7.31-10.83Zm3.96,1.91l-1.1-.14,3.05,4.5v-1.59l-1.95-2.77Z"/></g><g><path class="cls-1" d="M89.65,473.2h-3.8v-13.5c0-1.06,.86-1.91,1.91-1.91h0c1.06,0,1.91,.86,1.91,1.91v13.5h-.02Z"/><path class="cls-8" d="M90.35,473.9h-5.2v-14.2c0-1.43,1.17-2.61,2.61-2.61s2.61,1.17,2.61,2.61v14.2h-.02Zm-3.82-1.39h2.41v-12.8c0-.66-.54-1.21-1.21-1.21s-1.21,.54-1.21,1.21v12.8h.02Z"/></g></g><text class="cls-2" transform="translate(10.14 608.49)"><tspan x="0" y="0">Destructible obstacles</tspan></text><polygon class="cls-10" points="139.54 88.87 138.31 95.68 132.77 93.1 125.74 100.63 110.43 100.66 104.29 109.08 102.98 105.76 109.58 97.16 122.65 98.19 127.77 91.22 139.54 88.87"/><polygon class="cls-10" points="205.26 47.75 204.04 54.56 198.49 51.98 191.46 59.52 176.15 59.54 170.01 67.96 168.7 64.64 175.3 56.04 188.37 57.07 193.5 50.1 205.26 47.75"/><polygon class="cls-9" points="232.69 417.41 200.61 385.33 232.69 407.58 264.77 385.33 232.69 417.41"/><polygon class="cls-9" points="232.69 433.45 200.61 401.37 232.69 423.62 264.77 401.37 232.69 433.45"/><polygon class="cls-9" points="232.69 449.49 200.61 417.41 232.69 439.66 264.77 417.41 232.69 449.49"/><circle class="cls-7" cx="88.45" cy="249.89" r="7.96"/><polygon class="cls-10" points="169.84 105.37 162.8 105.37 167.31 98.34 158.56 79.18 169.57 59.04 158.56 44.36 165.6 44.36 176.61 59.86 165.27 75.88 174.36 91.74 169.84 105.37"/><polygon class="cls-10" points="167.59 105.37 160.66 105.37 162.23 99.45 153.56 93.86 150.83 78.8 141.46 74.24 144.5 72.36 154.14 77.34 155.42 90.39 163.19 94.21 167.59 105.37"/><polygon class="cls-10" points="143.44 44.36 150.49 44.36 141.74 51.39 150.49 66.91 139.48 90.69 150.49 105.37 143.44 105.37 132.44 89.86 143.78 70.21 134.69 57.99 143.44 44.36"/><polygon class="cls-10" points="205.52 60.86 206.74 54.04 212.29 56.63 219.32 49.09 234.63 49.07 240.77 40.65 242.08 43.97 235.48 52.57 222.41 51.54 217.28 58.51 205.52 60.86"/><polygon class="cls-10" points="109.17 75.61 110.39 68.8 115.94 71.38 122.97 63.84 138.28 63.82 144.42 55.4 145.73 58.72 139.13 67.32 126.06 66.29 120.93 73.26 109.17 75.61"/><polygon class="cls-10" points="175.21 44.36 182.26 44.36 177.74 51.39 186.5 70.54 175.49 90.69 186.5 105.37 179.45 105.37 168.44 89.86 179.78 73.85 170.7 57.99 175.21 44.36"/><polygon class="cls-10" points="224.42 44.36 231.47 44.36 226.96 51.39 235.71 70.54 224.7 90.69 235.71 105.37 228.66 105.37 217.65 89.86 228.99 73.85 219.91 57.99 224.42 44.36"/><polygon class="cls-10" points="177.47 44.36 184.4 44.36 182.83 50.28 191.49 55.87 194.22 70.93 203.59 75.49 200.55 77.36 190.92 72.38 189.63 59.34 181.87 55.52 177.47 44.36"/><polygon class="cls-10" points="201.61 105.37 194.56 105.37 203.32 98.34 194.56 82.82 205.57 59.04 194.56 44.36 201.61 44.36 212.62 59.86 201.28 79.52 210.36 91.74 201.61 105.37"/><path class="cls-3" d="M1.5,33.58H111.16c7.29,0,13.21,5.92,13.21,13.21v56.15c0,7.29-5.92,13.21-13.21,13.21H1.5V33.58h0Z"/><polygon class="cls-9" points="45.35 74.86 13.28 42.78 45.35 65.03 77.43 42.78 45.35 74.86"/><polygon class="cls-9" points="45.35 90.9 13.28 58.82 45.35 81.07 77.43 58.82 45.35 90.9"/><polygon class="cls-9" points="45.35 106.94 13.28 74.86 45.35 97.11 77.43 74.86 45.35 106.94"/><path class="cls-3" d="M232.69,33.58h38.58c7.29,0,13.21,5.92,13.21,13.21v56.15c0,7.29-5.92,13.21-13.21,13.21h-38.58V33.58h0Z" transform="translate(517.17 149.73) rotate(180)"/><rect id="Screen" class="cls-6" x="1.5" y="1.5" width="282.98" height="571.79" rx="38.26" ry="38.26"/></g></g></svg>