<?xml version="1.0" encoding="UTF-8"?><svg id="Camada_2" xmlns="http://www.w3.org/2000/svg" viewBox="0 0 285.98 614.71"><defs><style>.cls-1{fill:aqua;}.cls-2,.cls-3{fill:#f15a24;}.cls-4{fill:#77f6ec;}.cls-5{fill:#d4145a;}.cls-6{fill:none;stroke:#000;stroke-miterlimit:10;stroke-width:3px;}.cls-7{fill:#1f2121;}.cls-8{fill:#f9bda7;}.cls-3{font-family:AllRoundGothic-Demi, 'All Round Gothic';font-size:24.22px;}</style></defs><g id="Game_mechanics"><g id="Dodgdable_obstacles"><polygon class="cls-4" points="88.83 503.75 106.24 521.16 88.83 509.08 71.42 521.16 88.83 503.75"/><polygon class="cls-4" points="88.83 495.04 106.24 512.46 88.83 500.38 71.42 512.46 88.83 495.04"/><polygon class="cls-4" points="88.83 486.34 106.24 503.75 88.83 491.67 71.42 503.75 88.83 486.34"/><path class="cls-2" d="M1.5,462.14H21.46c7.29,0,13.21,5.92,13.21,13.21v56.15c0,7.29-5.92,13.21-13.21,13.21H1.5v-82.57h0Z"/><path class="cls-2" d="M142.99,462.14h128.28c7.29,0,13.21,5.92,13.21,13.21v56.15c0,7.29-5.92,13.21-13.21,13.21H142.99v-82.57h0Z" transform="translate(427.47 1006.85) rotate(180)"/><path class="cls-2" d="M1.5,231.82H111.16c7.29,0,13.21,5.92,13.21,13.21v56.15c0,7.29-5.92,13.21-13.21,13.21H1.5v-82.57h0Z"/><path class="cls-2" d="M232.69,231.82h38.58c7.29,0,13.21,5.92,13.21,13.21v56.15c0,7.29-5.92,13.21-13.21,13.21h-38.58v-82.57h0Z" transform="translate(517.17 546.21) rotate(180)"/><path class="cls-2" d="M36.29,1.5h0c7.29,0,13.21,5.92,13.21,13.21v56.15c0,7.29-5.92,13.21-13.21,13.21H1.5V36.29C1.5,17.09,17.09,1.5,36.29,1.5Z"/><path class="cls-2" d="M157.83,1.5h113.44c7.29,0,13.21,5.92,13.21,13.21v56.15c0,7.29-5.92,13.21-13.21,13.21h-73.79c-21.88,0-39.65-17.77-39.65-39.65V1.5h0Z" transform="translate(442.31 85.57) rotate(180)"/><rect id="Screen" class="cls-6" x="1.5" y="1.5" width="282.98" height="571.79" rx="38.26" ry="38.26"/><g id="Spaceship"><g><rect class="cls-1" x="80.6" y="461.74" width="14.28" height="12.54"/><path class="cls-7" d="M95.59,475.26h-15.67v-14.49h15.67v14.49Zm-14.3-1.95h12.88v-10.59h-12.88v10.59Z"/></g><g><polygon class="cls-1" points="97.19 474.05 107.56 458.66 107.56 448.07 97.19 458.88 97.19 474.05"/><path class="cls-7" d="M108.26,446.33v12.54l-11.77,17.44v-17.72l11.77-12.27Zm-1.39,12.13v-8.66l-8.98,9.38v12.6l8.98-13.32Z"/></g><g><polygon class="cls-5" points="107.56 468.87 107.56 440.94 112.28 445.68 112.28 453.88 107.56 468.87"/><path class="cls-7" d="M106.86,439.27l6.11,6.11v8.6l-6.11,19.43v-34.15Zm4.72,6.69l-3.33-3.33v21.72l3.33-10.57v-7.83Z"/></g><g><polygon class="cls-5" points="92.71 431.3 87.75 414.84 82.81 431.3 78.33 447.69 78.33 462.86 87.75 472.74 97.17 462.86 97.17 447.69 92.71 431.3"/><path class="cls-7" d="M87.75,473.75l-10.11-10.61v-15.53l.02-.1,4.48-16.39,5.61-18.72,5.61,18.7,4.5,16.49v15.53l-10.11,10.63Zm-8.72-11.17l8.72,9.16,8.72-9.16v-14.79l-4.44-16.29-4.26-14.24-4.28,14.26-4.44,16.27v14.79h-.02Z"/></g><g><polygon class="cls-1" points="91.53 449.54 87.75 443.05 83.99 449.54 80.56 456.01 80.56 462 87.75 465.91 94.96 462 94.96 456.01 91.53 449.54"/><path class="cls-7" d="M87.75,466.7l-7.88-4.28v-6.57l3.5-6.65,4.38-7.55,4.4,7.57,3.5,6.63v6.57l-7.9,4.28Zm-6.49-5.12l6.49,3.52,6.49-3.52v-5.4l-3.33-6.31-3.17-5.46-3.17,5.46-3.33,6.31v5.4Z"/></g><g><polygon class="cls-1" points="78.35 474.05 67.98 458.66 67.98 448.07 78.35 458.88 78.35 474.05"/><path class="cls-7" d="M67.28,446.33l11.77,12.29v17.72l-11.77-17.44v-12.56Zm10.37,12.84l-8.98-9.38v8.66l8.98,13.32v-12.6Z"/></g><g><polygon class="cls-5" points="67.98 468.87 67.98 440.94 63.24 445.68 63.24 453.88 67.98 468.87"/><path class="cls-7" d="M68.67,439.27v34.15l-6.11-19.43v-8.6l6.11-6.11Zm-1.39,25.09v-21.72l-3.33,3.33v7.81l3.33,10.59Z"/></g><g><polygon class="cls-1" points="83.51 428.95 85.44 432.64 83.51 441.32 79.41 443.79 83.51 428.95"/><path class="cls-7" d="M78.27,445.28l5.06-18.22,2.87,5.48-2.05,9.22-5.87,3.52Zm5.46-14.44l-3.17,11.45,2.35-1.41,1.81-8.14-1-1.89Z"/></g><g><polygon class="cls-1" points="91.99 428.95 90.06 432.64 91.99 441.32 96.11 443.79 91.99 428.95"/><path class="cls-7" d="M97.25,445.28l-5.87-3.52-2.05-9.22,2.87-5.48,5.06,18.22Zm-4.64-4.4l2.35,1.41-3.17-11.45-1,1.89,1.81,8.14Z"/></g><g><rect class="cls-1" x="63.26" y="448.07" width="4.72" height="5.81"/><path class="cls-7" d="M62.54,447.37h6.11v7.21h-6.11v-7.21Zm4.74,1.39h-3.33v4.42h3.33v-4.42Z"/></g><g><rect class="cls-1" x="107.56" y="448.07" width="4.72" height="5.81"/><path class="cls-7" d="M106.86,447.37h6.11v7.21h-6.11v-7.21Zm4.72,1.39h-3.33v4.42h3.33v-4.42Z"/></g><rect class="cls-7" x="87.05" y="414.84" width="1.39" height="14.63"/><rect class="cls-7" x="87.05" y="431" width="1.39" height="2.57"/><rect class="cls-7" x="87.05" y="435.52" width="1.39" height="1.85"/><g><polygon class="cls-5" points="100.37 469.33 100.37 465.23 102.62 462.02 105.53 461.67 100.37 469.33"/><path class="cls-7" d="M106.98,460.77l-7.31,10.83v-6.59l2.57-3.64,4.74-.6Zm-5.91,6.27l3.05-4.5-1.1,.14-1.95,2.77v1.59Z"/></g><g><polygon class="cls-5" points="75.17 469.33 75.17 465.23 72.92 462.02 69.99 461.67 75.17 469.33"/><path class="cls-7" d="M68.56,460.77l4.74,.6,2.57,3.64v6.59l-7.31-10.83Zm3.96,1.91l-1.1-.14,3.05,4.5v-1.59l-1.95-2.77Z"/></g><g><path class="cls-1" d="M89.65,473.2h-3.8v-13.5c0-1.06,.86-1.91,1.91-1.91h0c1.06,0,1.91,.86,1.91,1.91v13.5h-.02Z"/><path class="cls-7" d="M90.35,473.9h-5.2v-14.2c0-1.43,1.17-2.61,2.61-2.61s2.61,1.17,2.61,2.61v14.2h-.02Zm-3.82-1.39h2.41v-12.8c0-.66-.54-1.21-1.21-1.21s-1.21,.54-1.21,1.21v12.8h.02Z"/></g></g><text class="cls-3" transform="translate(21.22 608.49)"><tspan x="0" y="0">Dodgdable obstacles</tspan></text><polygon class="cls-8" points="232.69 42.78 200.61 10.71 232.69 32.95 264.77 10.71 232.69 42.78"/><polygon class="cls-8" points="232.69 58.82 200.61 26.74 232.69 48.99 264.77 26.74 232.69 58.82"/><polygon class="cls-8" points="232.69 74.86 200.61 42.78 232.69 65.03 264.77 42.78 232.69 74.86"/><polygon class="cls-4" points="103.67 42.78 121.08 60.2 103.67 48.12 86.25 60.2 103.67 42.78"/><polygon class="cls-4" points="103.67 34.08 121.08 51.49 103.67 39.41 86.25 51.49 103.67 34.08"/><polygon class="cls-4" points="103.67 25.37 121.08 42.78 103.67 30.71 86.25 42.78 103.67 25.37"/><polygon class="cls-4" points="178.53 273.1 195.94 290.52 178.53 278.44 161.12 290.52 178.53 273.1"/><polygon class="cls-4" points="178.53 264.4 195.94 281.81 178.53 269.73 161.12 281.81 178.53 264.4"/><polygon class="cls-4" points="178.53 255.69 195.94 273.1 178.53 261.03 161.12 273.1 178.53 255.69"/><polygon class="cls-8" points="45.35 273.1 13.28 241.02 45.35 263.27 77.43 241.02 45.35 273.1"/><polygon class="cls-8" points="45.35 289.14 13.28 257.06 45.35 279.31 77.43 257.06 45.35 289.14"/><polygon class="cls-8" points="45.35 305.18 13.28 273.1 45.35 295.35 77.43 273.1 45.35 305.18"/><polygon class="cls-8" points="232.69 503.57 200.61 471.49 232.69 493.74 264.77 471.49 232.69 503.57"/><polygon class="cls-8" points="232.69 519.61 200.61 487.53 232.69 509.78 264.77 487.53 232.69 519.61"/><polygon class="cls-8" points="232.69 535.65 200.61 503.57 232.69 525.82 264.77 503.57 232.69 535.65"/></g></g></svg>