<?xml version="1.0" encoding="UTF-8"?><svg id="Camada_2" xmlns="http://www.w3.org/2000/svg" viewBox="0 0 285.98 614.71"><defs><style>.cls-1{fill:aqua;}.cls-2{stroke:#f7931e;}.cls-2,.cls-3{fill:#f15a24;}.cls-2,.cls-4,.cls-5,.cls-6{stroke-miterlimit:10;}.cls-7{fill:#d4145a;}.cls-8{fill:#e6e6e6;}.cls-4{fill:none;stroke:#000;}.cls-4,.cls-6{stroke-width:3px;}.cls-9{fill:#1f2121;}.cls-5{fill:red;stroke:#c1272d;}.cls-6{fill:#29abe2;stroke:aqua;}.cls-10{font-family:AllRoundGothic-Demi, 'All Round Gothic';font-size:24.22px;}.cls-10,.cls-11{fill:#666;}</style></defs><g id="Game_mechanics"><g id="Enemy_tower"><rect id="Screen" class="cls-4" x="1.5" y="1.5" width="282.98" height="571.79" rx="38.26" ry="38.26"/><g id="Spaceship"><g><rect class="cls-1" x="212.7" y="461.74" width="14.28" height="12.54"/><path class="cls-9" d="M227.69,475.26h-15.67v-14.49h15.67v14.49Zm-14.3-1.95h12.88v-10.59h-12.88v10.59Z"/></g><g><polygon class="cls-1" points="229.28 474.05 239.66 458.66 239.66 448.07 229.28 458.88 229.28 474.05"/><path class="cls-9" d="M240.35,446.33v12.54l-11.77,17.44v-17.72l11.77-12.27Zm-1.39,12.13v-8.66l-8.98,9.38v12.6l8.98-13.32Z"/></g><g><polygon class="cls-7" points="239.66 468.87 239.66 440.94 244.37 445.68 244.37 453.88 239.66 468.87"/><path class="cls-9" d="M238.96,439.27l6.11,6.11v8.6l-6.11,19.43v-34.15Zm4.72,6.69l-3.33-3.33v21.72l3.33-10.57v-7.83Z"/></g><g><polygon class="cls-7" points="224.8 431.3 219.84 414.84 214.91 431.3 210.43 447.69 210.43 462.86 219.84 472.74 229.26 462.86 229.26 447.69 224.8 431.3"/><path class="cls-9" d="M219.84,473.75l-10.11-10.61v-15.53l.02-.1,4.48-16.39,5.61-18.72,5.61,18.7,4.5,16.49v15.53l-10.11,10.63Zm-8.72-11.17l8.72,9.16,8.72-9.16v-14.79l-4.44-16.29-4.26-14.24-4.28,14.26-4.44,16.27v14.79h-.02Z"/></g><g><polygon class="cls-1" points="223.63 449.54 219.84 443.05 216.08 449.54 212.66 456.01 212.66 462 219.84 465.91 227.05 462 227.05 456.01 223.63 449.54"/><path class="cls-9" d="M219.84,466.7l-7.88-4.28v-6.57l3.5-6.65,4.38-7.55,4.4,7.57,3.5,6.63v6.57l-7.9,4.28Zm-6.49-5.12l6.49,3.52,6.49-3.52v-5.4l-3.33-6.31-3.17-5.46-3.17,5.46-3.33,6.31v5.4Z"/></g><g><polygon class="cls-1" points="210.45 474.05 200.07 458.66 200.07 448.07 210.45 458.88 210.45 474.05"/><path class="cls-9" d="M199.37,446.33l11.77,12.29v17.72l-11.77-17.44v-12.56Zm10.37,12.84l-8.98-9.38v8.66l8.98,13.32v-12.6Z"/></g><g><polygon class="cls-7" points="200.07 468.87 200.07 440.94 195.33 445.68 195.33 453.88 200.07 468.87"/><path class="cls-9" d="M200.77,439.27v34.15l-6.11-19.43v-8.6l6.11-6.11Zm-1.39,25.09v-21.72l-3.33,3.33v7.81l3.33,10.59Z"/></g><g><polygon class="cls-1" points="215.6 428.95 217.53 432.64 215.6 441.32 211.5 443.79 215.6 428.95"/><path class="cls-9" d="M210.37,445.28l5.06-18.22,2.87,5.48-2.05,9.22-5.87,3.52Zm5.46-14.44l-3.17,11.45,2.35-1.41,1.81-8.14-1-1.89Z"/></g><g><polygon class="cls-1" points="224.08 428.95 222.15 432.64 224.08 441.32 228.21 443.79 224.08 428.95"/><path class="cls-9" d="M229.34,445.28l-5.87-3.52-2.05-9.22,2.87-5.48,5.06,18.22Zm-4.64-4.4l2.35,1.41-3.17-11.45-1,1.89,1.81,8.14Z"/></g><g><rect class="cls-1" x="195.35" y="448.07" width="4.72" height="5.81"/><path class="cls-9" d="M194.64,447.37h6.11v7.21h-6.11v-7.21Zm4.74,1.39h-3.33v4.42h3.33v-4.42Z"/></g><g><rect class="cls-1" x="239.66" y="448.07" width="4.72" height="5.81"/><path class="cls-9" d="M238.96,447.37h6.11v7.21h-6.11v-7.21Zm4.72,1.39h-3.33v4.42h3.33v-4.42Z"/></g><rect class="cls-9" x="219.15" y="414.84" width="1.39" height="14.63"/><rect class="cls-9" x="219.15" y="431" width="1.39" height="2.57"/><rect class="cls-9" x="219.15" y="435.52" width="1.39" height="1.85"/><g><polygon class="cls-7" points="232.47 469.33 232.47 465.23 234.72 462.02 237.62 461.67 232.47 469.33"/><path class="cls-9" d="M239.08,460.77l-7.31,10.83v-6.59l2.57-3.64,4.74-.6Zm-5.91,6.27l3.05-4.5-1.1,.14-1.95,2.77v1.59Z"/></g><g><polygon class="cls-7" points="207.26 469.33 207.26 465.23 205.01 462.02 202.08 461.67 207.26 469.33"/><path class="cls-9" d="M200.65,460.77l4.74,.6,2.57,3.64v6.59l-7.31-10.83Zm3.96,1.91l-1.1-.14,3.05,4.5v-1.59l-1.95-2.77Z"/></g><g><path class="cls-1" d="M221.75,473.2h-3.8v-13.5c0-1.06,.86-1.91,1.91-1.91h0c1.06,0,1.91,.86,1.91,1.91v13.5h-.02Z"/><path class="cls-9" d="M222.44,473.9h-5.2v-14.2c0-1.43,1.17-2.61,2.61-2.61s2.61,1.17,2.61,2.61v14.2h-.02Zm-3.82-1.39h2.41v-12.8c0-.66-.54-1.21-1.21-1.21s-1.21,.54-1.21,1.21v12.8h.02Z"/></g></g><text class="cls-10" transform="translate(64.47 608.49)"><tspan x="0" y="0">Enemy tower</tspan></text><circle class="cls-6" cx="220.54" cy="249.89" r="7.96"/><circle class="cls-11" cx="220.54" cy="320.89" r="24.66"/><circle class="cls-11" cx="115.18" cy="79.18" r="24.66"/><polygon class="cls-3" points="235.23 330.51 240.37 322.42 235.63 319.41 237.09 317.12 234.95 315.75 237.65 308.87 229.18 305.55 227.52 302.67 224.69 304.31 215.91 299.95 212.78 306.26 208.52 304.59 205.96 311.1 201.49 311.36 202.17 323.07 202.46 323.05 200.72 326.5 204.06 328.18 202.65 329.02 208.67 339.08 212.01 337.09 213.4 340.73 221.5 337.62 225.4 340.52 228.6 336.2 234.49 336.88 235.23 330.51"/><circle class="cls-8" cx="115.18" cy="79.18" r="18.29"/><rect class="cls-2" x="112.74" y="78.63" width="11.63" height="21.47" transform="translate(-22.08 41.78) rotate(-18.32)"/><rect class="cls-2" x="113.5" y="99.38" width="19.02" height="6.94" transform="translate(-26.09 43.87) rotate(-18.32)"/><polygon class="cls-5" points="162.59 260.6 166.18 258 165.03 262.29 169.41 263 165.57 265.21 168.16 268.81 163.88 267.66 163.17 272.04 160.96 268.19 157.36 270.79 158.51 266.51 154.13 265.8 157.97 263.58 155.38 259.99 159.66 261.14 160.37 256.76 162.59 260.6"/><polygon class="cls-5" points="132.41 132.22 136.01 129.63 134.86 133.91 139.24 134.62 135.4 136.84 137.99 140.43 133.71 139.28 133 143.66 130.78 139.82 127.19 142.42 128.34 138.13 123.96 137.42 127.8 135.21 125.2 131.61 129.49 132.76 130.2 128.38 132.41 132.22"/><circle class="cls-11" cx="65.78" cy="512.54" r="24.66"/><circle class="cls-8" cx="65.78" cy="512.54" r="18.29"/><rect class="cls-2" x="69.3" y="496.5" width="11.63" height="21.47" transform="translate(-328.62 823.36) rotate(-119.64)"/><rect class="cls-2" x="77.94" y="496.74" width="19.02" height="6.94" transform="translate(-304.07 823.59) rotate(-119.64)"/><polygon class="cls-5" points="139.11 476.29 135.86 473.27 140.28 473.56 140.12 469.12 143.04 472.46 146.06 469.21 145.77 473.63 150.21 473.47 146.87 476.39 150.13 479.41 145.7 479.12 145.86 483.56 142.94 480.22 139.92 483.48 140.21 479.05 135.77 479.21 139.11 476.29"/></g></g></svg>