<?xml version="1.0" encoding="UTF-8"?><svg id="Camada_2" xmlns="http://www.w3.org/2000/svg" viewBox="0 0 285.98 614.71"><defs><style>.cls-1{font-family:AllRoundGothic-Demi, 'All Round Gothic';font-size:24.22px;}.cls-1,.cls-2,.cls-3{fill:#9e005d;}.cls-4{fill:aqua;}.cls-3,.cls-5,.cls-6,.cls-7{stroke-miterlimit:10;}.cls-3,.cls-7{stroke:#1f2121;}.cls-8{fill:#d4145a;}.cls-5{fill:none;stroke:#000;stroke-width:3px;}.cls-9{fill:#1f2121;}.cls-6{fill:red;stroke:#c1272d;}.cls-7{fill:#ce4f1f;}</style></defs><g id="Game_mechanics"><g id="Enemy_spaceship"><rect id="Screen" class="cls-5" x="1.5" y="1.5" width="282.98" height="571.79" rx="38.26" ry="38.26"/><g id="Spaceship"><g><rect class="cls-4" x="212.7" y="461.74" width="14.28" height="12.54"/><path class="cls-9" d="M227.69,475.26h-15.67v-14.49h15.67v14.49Zm-14.3-1.95h12.88v-10.59h-12.88v10.59Z"/></g><g><polygon class="cls-4" points="229.28 474.05 239.66 458.66 239.66 448.07 229.28 458.88 229.28 474.05"/><path class="cls-9" d="M240.35,446.33v12.54l-11.77,17.44v-17.72l11.77-12.27Zm-1.39,12.13v-8.66l-8.98,9.38v12.6l8.98-13.32Z"/></g><g><polygon class="cls-8" points="239.66 468.87 239.66 440.94 244.37 445.68 244.37 453.88 239.66 468.87"/><path class="cls-9" d="M238.96,439.27l6.11,6.11v8.6l-6.11,19.43v-34.15Zm4.72,6.69l-3.33-3.33v21.72l3.33-10.57v-7.83Z"/></g><g><polygon class="cls-8" points="224.8 431.3 219.84 414.84 214.91 431.3 210.43 447.69 210.43 462.86 219.84 472.74 229.26 462.86 229.26 447.69 224.8 431.3"/><path class="cls-9" d="M219.84,473.75l-10.11-10.61v-15.53l.02-.1,4.48-16.39,5.61-18.72,5.61,18.7,4.5,16.49v15.53l-10.11,10.63Zm-8.72-11.17l8.72,9.16,8.72-9.16v-14.79l-4.44-16.29-4.26-14.24-4.28,14.26-4.44,16.27v14.79h-.02Z"/></g><g><polygon class="cls-4" points="223.63 449.54 219.84 443.05 216.08 449.54 212.66 456.01 212.66 462 219.84 465.91 227.05 462 227.05 456.01 223.63 449.54"/><path class="cls-9" d="M219.84,466.7l-7.88-4.28v-6.57l3.5-6.65,4.38-7.55,4.4,7.57,3.5,6.63v6.57l-7.9,4.28Zm-6.49-5.12l6.49,3.52,6.49-3.52v-5.4l-3.33-6.31-3.17-5.46-3.17,5.46-3.33,6.31v5.4Z"/></g><g><polygon class="cls-4" points="210.45 474.05 200.07 458.66 200.07 448.07 210.45 458.88 210.45 474.05"/><path class="cls-9" d="M199.37,446.33l11.77,12.29v17.72l-11.77-17.44v-12.56Zm10.37,12.84l-8.98-9.38v8.66l8.98,13.32v-12.6Z"/></g><g><polygon class="cls-8" points="200.07 468.87 200.07 440.94 195.33 445.68 195.33 453.88 200.07 468.87"/><path class="cls-9" d="M200.77,439.27v34.15l-6.11-19.43v-8.6l6.11-6.11Zm-1.39,25.09v-21.72l-3.33,3.33v7.81l3.33,10.59Z"/></g><g><polygon class="cls-4" points="215.6 428.95 217.53 432.64 215.6 441.32 211.5 443.79 215.6 428.95"/><path class="cls-9" d="M210.37,445.28l5.06-18.22,2.87,5.48-2.05,9.22-5.87,3.52Zm5.46-14.44l-3.17,11.45,2.35-1.41,1.81-8.14-1-1.89Z"/></g><g><polygon class="cls-4" points="224.08 428.95 222.15 432.64 224.08 441.32 228.21 443.79 224.08 428.95"/><path class="cls-9" d="M229.34,445.28l-5.87-3.52-2.05-9.22,2.87-5.48,5.06,18.22Zm-4.64-4.4l2.35,1.41-3.17-11.45-1,1.89,1.81,8.14Z"/></g><g><rect class="cls-4" x="195.35" y="448.07" width="4.72" height="5.81"/><path class="cls-9" d="M194.64,447.37h6.11v7.21h-6.11v-7.21Zm4.74,1.39h-3.33v4.42h3.33v-4.42Z"/></g><g><rect class="cls-4" x="239.66" y="448.07" width="4.72" height="5.81"/><path class="cls-9" d="M238.96,447.37h6.11v7.21h-6.11v-7.21Zm4.72,1.39h-3.33v4.42h3.33v-4.42Z"/></g><rect class="cls-9" x="219.15" y="414.84" width="1.39" height="14.63"/><rect class="cls-9" x="219.15" y="431" width="1.39" height="2.57"/><rect class="cls-9" x="219.15" y="435.52" width="1.39" height="1.85"/><g><polygon class="cls-8" points="232.47 469.33 232.47 465.23 234.72 462.02 237.62 461.67 232.47 469.33"/><path class="cls-9" d="M239.08,460.77l-7.31,10.83v-6.59l2.57-3.64,4.74-.6Zm-5.91,6.27l3.05-4.5-1.1,.14-1.95,2.77v1.59Z"/></g><g><polygon class="cls-8" points="207.26 469.33 207.26 465.23 205.01 462.02 202.08 461.67 207.26 469.33"/><path class="cls-9" d="M200.65,460.77l4.74,.6,2.57,3.64v6.59l-7.31-10.83Zm3.96,1.91l-1.1-.14,3.05,4.5v-1.59l-1.95-2.77Z"/></g><g><path class="cls-4" d="M221.75,473.2h-3.8v-13.5c0-1.06,.86-1.91,1.91-1.91h0c1.06,0,1.91,.86,1.91,1.91v13.5h-.02Z"/><path class="cls-9" d="M222.44,473.9h-5.2v-14.2c0-1.43,1.17-2.61,2.61-2.61s2.61,1.17,2.61,2.61v14.2h-.02Zm-3.82-1.39h2.41v-12.8c0-.66-.54-1.21-1.21-1.21s-1.21,.54-1.21,1.21v12.8h.02Z"/></g></g><g id="Spaceship-2"><polygon class="cls-3" points="128.17 80.48 117.77 93.22 117.77 103.81 128.15 109.25 128.17 80.48"/><polygon class="cls-7" points="117.77 85.53 117.77 113.46 113.05 108.72 113.05 100.52 117.77 85.53"/><polygon class="cls-7" points="121.1 97 128.17 88.91 128.17 96.49 121.1 102.4 121.1 97"/><polygon class="cls-7" points="132.59 120.91 137.55 115.65 142.49 120.91 146.97 104.53 146.97 85.33 137.55 87.65 128.13 85.33 128.13 104.53 132.59 120.91"/><polygon class="cls-3" points="133.77 102.67 137.55 109.17 141.31 102.67 144.74 96.2 144.74 90.21 137.55 93.54 130.34 90.21 130.34 96.2 133.77 102.67"/><polygon class="cls-3" points="133.34 124.12 135.27 120.44 133.34 111.75 129.22 109.29 133.34 124.12"/><polygon class="cls-3" points="146.91 80.48 157.31 93.22 157.31 103.81 146.93 109.25 146.91 80.48"/><polygon class="cls-7" points="157.31 85.53 157.31 113.46 162.03 108.72 162.03 100.52 157.31 85.53"/><polygon class="cls-7" points="153.98 97 146.91 88.91 146.91 96.49 153.98 102.4 153.98 97"/><polygon class="cls-3" points="141.74 124.12 139.81 120.44 141.74 111.75 145.86 109.29 141.74 124.12"/><rect class="cls-9" x="136.85" y="114.84" width="1.39" height="1.85"/></g><text class="cls-1" transform="translate(42.84 608.49)"><tspan x="0" y="0">Enemy spaceship</tspan></text><g><path class="cls-2" d="M57.2,82.16c1.96,3.89,4.87,7.34,8.32,10.19,3.45,2.86,7.44,5.13,11.67,6.82,4.24,1.69,8.74,2.81,13.32,3.31,4.58,.49,9.26,.38,13.84-.49-4.5,1.2-9.22,1.66-13.91,1.49-4.7-.18-9.39-.99-13.92-2.42-4.52-1.44-8.89-3.52-12.83-6.33-3.93-2.8-7.43-6.37-9.99-10.63l3.5-1.94Z"/><polygon class="cls-2" points="52.53 86.09 52.67 78.11 59.51 82.22 52.53 86.09"/></g><g><path class="cls-2" d="M221.38,84.1c-2.56,4.27-6.06,7.83-9.99,10.63-3.94,2.81-8.31,4.89-12.83,6.33-4.53,1.44-9.22,2.25-13.92,2.42-4.7,.17-9.41-.29-13.91-1.49,4.58,.87,9.26,.98,13.84,.49,4.58-.5,9.08-1.62,13.32-3.31,4.23-1.69,8.22-3.97,11.67-6.82,3.45-2.85,6.35-6.3,8.32-10.19l3.5,1.94Z"/><polygon class="cls-2" points="215.57 82.22 222.41 78.11 222.55 86.09 215.57 82.22"/></g><polygon class="cls-6" points="140.51 143.4 144.1 140.81 142.95 145.09 147.33 145.8 143.49 148.01 146.09 151.61 141.8 150.46 141.09 154.84 138.88 151 135.28 153.59 136.43 149.31 132.05 148.6 135.9 146.39 133.3 142.79 137.58 143.94 138.29 139.56 140.51 143.4"/><polygon class="cls-6" points="69.83 271.55 73.42 268.95 72.27 273.24 76.65 273.94 72.81 276.16 75.41 279.76 71.12 278.61 70.42 282.99 68.2 279.14 64.6 281.74 65.75 277.46 61.37 276.75 65.22 274.53 62.62 270.94 66.9 272.09 67.61 267.71 69.83 271.55"/></g></g></svg>