<?xml version="1.0" encoding="UTF-8"?><svg id="Camada_2" xmlns="http://www.w3.org/2000/svg" viewBox="0 0 288.95 614.71"><defs><style>.cls-1{letter-spacing:-.03em;}.cls-2{fill:aqua;}.cls-3{fill:none;stroke:#f7931e;stroke-linecap:round;stroke-width:10px;}.cls-3,.cls-4{stroke-miterlimit:10;}.cls-5{fill:#d4145a;}.cls-6,.cls-7{fill:#f7931e;}.cls-8{fill:#1f2121;}.cls-7{font-family:AllRoundGothic-Demi, 'All Round Gothic';font-size:24.22px;}.cls-4{fill:#fff;stroke:#000;stroke-width:3px;}</style></defs><g id="Game_mechanics"><g id="Gravitational_attraction"><rect id="Screen" class="cls-4" x="2.8" y="1.5" width="282.98" height="571.79" rx="38.26" ry="38.26"/><g id="Spaceship"><g><rect class="cls-2" x="137.13" y="457.73" width="14.28" height="12.54"/><path class="cls-8" d="M152.13,471.24h-15.67v-14.49h15.67v14.49Zm-14.3-1.95h12.88v-10.59h-12.88v10.59Z"/></g><g><polygon class="cls-2" points="153.72 470.04 164.09 454.65 164.09 444.05 153.72 454.87 153.72 470.04"/><path class="cls-8" d="M164.79,442.32v12.54l-11.77,17.44v-17.72l11.77-12.27Zm-1.39,12.13v-8.66l-8.98,9.38v12.6l8.98-13.32Z"/></g><g><polygon class="cls-5" points="164.09 464.86 164.09 436.93 168.81 441.66 168.81 449.87 164.09 464.86"/><path class="cls-8" d="M163.4,435.25l6.11,6.11v8.6l-6.11,19.43v-34.15Zm4.72,6.69l-3.33-3.33v21.72l3.33-10.57v-7.83Z"/></g><g><polygon class="cls-5" points="149.24 427.29 144.28 410.82 139.34 427.29 134.86 443.68 134.86 458.85 144.28 468.72 153.7 458.85 153.7 443.68 149.24 427.29"/><path class="cls-8" d="M144.28,469.74l-10.11-10.61v-15.53l.02-.1,4.48-16.39,5.61-18.72,5.61,18.7,4.5,16.49v15.53l-10.11,10.63Zm-8.72-11.17l8.72,9.16,8.72-9.16v-14.79l-4.44-16.29-4.26-14.24-4.28,14.26-4.44,16.27v14.79h-.02Z"/></g><g><polygon class="cls-2" points="148.06 445.53 144.28 439.04 140.52 445.53 137.09 452 137.09 457.99 144.28 461.89 151.49 457.99 151.49 452 148.06 445.53"/><path class="cls-8" d="M144.28,462.69l-7.88-4.28v-6.57l3.5-6.65,4.38-7.55,4.4,7.57,3.5,6.63v6.57l-7.9,4.28Zm-6.49-5.12l6.49,3.52,6.49-3.52v-5.4l-3.33-6.31-3.17-5.46-3.17,5.46-3.33,6.31v5.4Z"/></g><g><polygon class="cls-2" points="134.88 470.04 124.51 454.65 124.51 444.05 134.88 454.87 134.88 470.04"/><path class="cls-8" d="M123.81,442.32l11.77,12.29v17.72l-11.77-17.44v-12.56Zm10.37,12.84l-8.98-9.38v8.66l8.98,13.32v-12.6Z"/></g><g><polygon class="cls-5" points="124.51 464.86 124.51 436.93 119.77 441.66 119.77 449.87 124.51 464.86"/><path class="cls-8" d="M125.21,435.25v34.15l-6.11-19.43v-8.6l6.11-6.11Zm-1.39,25.09v-21.72l-3.33,3.33v7.81l3.33,10.59Z"/></g><g><polygon class="cls-2" points="140.04 424.94 141.97 428.62 140.04 437.3 135.94 439.77 140.04 424.94"/><path class="cls-8" d="M134.8,441.27l5.06-18.22,2.87,5.48-2.05,9.22-5.87,3.52Zm5.46-14.44l-3.17,11.45,2.35-1.41,1.81-8.14-1-1.89Z"/></g><g><polygon class="cls-2" points="148.52 424.94 146.59 428.62 148.52 437.3 152.64 439.77 148.52 424.94"/><path class="cls-8" d="M153.78,441.27l-5.87-3.52-2.05-9.22,2.87-5.48,5.06,18.22Zm-4.64-4.4l2.35,1.41-3.17-11.45-1,1.89,1.81,8.14Z"/></g><g><rect class="cls-2" x="119.79" y="444.05" width="4.72" height="5.81"/><path class="cls-8" d="M119.07,443.36h6.11v7.21h-6.11v-7.21Zm4.74,1.39h-3.33v4.42h3.33v-4.42Z"/></g><g><rect class="cls-2" x="164.09" y="444.05" width="4.72" height="5.81"/><path class="cls-8" d="M163.4,443.36h6.11v7.21h-6.11v-7.21Zm4.72,1.39h-3.33v4.42h3.33v-4.42Z"/></g><rect class="cls-8" x="143.58" y="410.82" width="1.39" height="14.63"/><rect class="cls-8" x="143.58" y="426.99" width="1.39" height="2.57"/><rect class="cls-8" x="143.58" y="431.51" width="1.39" height="1.85"/><g><polygon class="cls-5" points="156.91 465.32 156.91 461.22 159.16 458.01 162.06 457.65 156.91 465.32"/><path class="cls-8" d="M163.52,456.76l-7.31,10.83v-6.59l2.57-3.64,4.74-.6Zm-5.91,6.27l3.05-4.5-1.1,.14-1.95,2.77v1.59Z"/></g><g><polygon class="cls-5" points="131.7 465.32 131.7 461.22 129.45 458.01 126.52 457.65 131.7 465.32"/><path class="cls-8" d="M125.09,456.76l4.74,.6,2.57,3.64v6.59l-7.31-10.83Zm3.96,1.91l-1.1-.14,3.05,4.5v-1.59l-1.95-2.77Z"/></g><g><path class="cls-2" d="M146.18,469.19h-3.8v-13.5c0-1.06,.86-1.91,1.91-1.91h0c1.06,0,1.91,.86,1.91,1.91v13.5h-.02Z"/><path class="cls-8" d="M146.88,469.89h-5.2v-14.2c0-1.43,1.17-2.61,2.61-2.61s2.61,1.17,2.61,2.61v14.2h-.02Zm-3.82-1.39h2.41v-12.8c0-.66-.54-1.21-1.21-1.21s-1.21,.54-1.21,1.21v12.8h.02Z"/></g></g><text class="cls-7" transform="translate(0 608.49)"><tspan x="0" y="0">Gr</tspan><tspan class="cls-1" x="30.37" y="0">a</tspan><tspan x="44.46" y="0">vitational attraction</tspan></text><g id="Gravitational_attraction-2"><g><line class="cls-3" x1="60.9" y1="449.17" x2="96.9" y2="449.17"/><polygon class="cls-6" points="67.03 470.11 30.76 449.17 67.03 428.23 67.03 470.11"/></g><path class="cls-6" d="M96.9,454.19c-32.47,0-32.47,10.68-32.47,10.68v-30.53s0,10.05,32.47,10.05v9.8Z"/></g><g id="Gravitational_attraction-3"><g><line class="cls-3" x1="227.69" y1="450.02" x2="191.69" y2="450.02"/><polygon class="cls-6" points="221.56 429.08 257.82 450.02 221.56 470.97 221.56 429.08"/></g><path class="cls-6" d="M191.69,445.01c32.47,0,32.47-10.68,32.47-10.68v30.53s0-10.05-32.47-10.05v-9.8Z"/></g></g></g></svg>