<?xml version="1.0" encoding="UTF-8"?><svg id="Camada_2" xmlns="http://www.w3.org/2000/svg" viewBox="0 0 1648.14 622.37"><defs><style>.cls-1{letter-spacing:.01em;}.cls-2{letter-spacing:0em;}.cls-3{font-size:14.32px;}.cls-3,.cls-4,.cls-5,.cls-6{font-family:AcuminPro-Bold, 'Acumin Pro';}.cls-3,.cls-4,.cls-6,.cls-7{fill:#f7931e;}.cls-8{font-family:AllRoundGothic-Demi, 'All Round Gothic';font-size:36px;}.cls-8,.cls-9{fill:#0071bc;}.cls-10{letter-spacing:0em;}.cls-11{stroke:#0071bc;stroke-linecap:round;stroke-linejoin:round;stroke-width:8px;}.cls-11,.cls-12,.cls-13{fill:none;}.cls-14{fill:aqua;}.cls-4{font-size:14.25px;}.cls-15{letter-spacing:-.02em;}.cls-16{letter-spacing:0em;}.cls-17{letter-spacing:.01em;}.cls-18{font-size:28.09px;}.cls-18,.cls-19,.cls-20,.cls-7,.cls-21{font-family:BDNippori-2005, 'BD Nippori';}.cls-18,.cls-20{fill:#d60f5d;}.cls-22{letter-spacing:0em;}.cls-23{fill:#65c8d0;}.cls-24{fill:#f15a24;}.cls-25{fill:#77f6ec;}.cls-26{letter-spacing:0em;}.cls-27{letter-spacing:0em;}.cls-28{fill:#d4145a;}.cls-12{stroke:#000;stroke-width:3px;}.cls-12,.cls-13{stroke-miterlimit:10;}.cls-29{fill:#1f2121;}.cls-19{fill:#fb4c12;font-size:65.92px;}.cls-30{letter-spacing:0em;}.cls-13{stroke:#f7931e;}.cls-31{letter-spacing:-.01em;}.cls-5{fill:#e06210;font-size:23.2px;}.cls-32{letter-spacing:-.01em;}.cls-33{letter-spacing:0em;}.cls-34{letter-spacing:0em;}.cls-35{fill:#f9bda7;}.cls-36{letter-spacing:0em;}.cls-6{font-size:11.01px;}.cls-37{letter-spacing:0em;}.cls-38{letter-spacing:0em;}.cls-20{font-size:40px;}.cls-39{letter-spacing:0em;}.cls-40{letter-spacing:0em;}.cls-7{font-size:40.49px;}.cls-41{letter-spacing:-.07em;}.cls-42{letter-spacing:-.02em;}.cls-43{fill:#ef8a21;}.cls-44{fill:#f2f2f2;}.cls-45{letter-spacing:0em;}.cls-21{fill:#a8490c;font-size:60px;}</style></defs><g id="Game_mechanics"><g id="Player_Experience"><rect class="cls-13" x="1381.09" y="425.72" width="180.1" height="38.92"/><polygon class="cls-25" points="530.03 256.92 547.45 274.33 530.03 262.25 512.62 274.33 530.03 256.92"/><polygon class="cls-25" points="530.03 248.21 547.45 265.63 530.03 253.55 512.62 265.63 530.03 248.21"/><polygon class="cls-25" points="530.03 239.51 547.45 256.92 530.03 244.84 512.62 256.92 530.03 239.51"/><path class="cls-24" d="M442.7,215.31h19.96c7.29,0,13.21,5.92,13.21,13.21v56.15c0,7.29-5.92,13.21-13.21,13.21h-19.96v-82.57h0Z"/><path class="cls-24" d="M584.2,215.31h128.28c7.29,0,13.21,5.92,13.21,13.21v56.15c0,7.29-5.92,13.21-13.21,13.21h-128.28v-82.57h0Z" transform="translate(1309.88 513.19) rotate(180)"/><polygon class="cls-35" points="673.9 256.74 641.82 224.66 673.9 246.91 705.97 224.66 673.9 256.74"/><polygon class="cls-35" points="673.9 272.78 641.82 240.7 673.9 262.95 705.97 240.7 673.9 272.78"/><polygon class="cls-35" points="673.9 288.82 641.82 256.74 673.9 278.99 705.97 256.74 673.9 288.82"/><rect id="Screen" class="cls-12" x="1.5" y="49.09" width="282.98" height="571.79" rx="38.26" ry="38.26"/><g id="Spaceship"><g><rect class="cls-14" x="130.38" y="502.4" width="14.28" height="12.54"/><path class="cls-29" d="M145.37,515.92h-15.67v-14.49h15.67v14.49Zm-14.3-1.95h12.88v-10.59h-12.88v10.59Z"/></g><g><polygon class="cls-14" points="146.97 514.71 157.34 499.32 157.34 488.73 146.97 499.54 146.97 514.71"/><path class="cls-29" d="M158.04,486.99v12.54l-11.77,17.44v-17.72l11.77-12.27Zm-1.39,12.13v-8.66l-8.98,9.38v12.6l8.98-13.32Z"/></g><g><polygon class="cls-28" points="157.34 509.53 157.34 481.6 162.06 486.34 162.06 494.54 157.34 509.53"/><path class="cls-29" d="M156.64,479.93l6.11,6.11v8.6l-6.11,19.43v-34.15Zm4.72,6.69l-3.33-3.33v21.72l3.33-10.57v-7.83Z"/></g><g><polygon class="cls-28" points="142.49 471.96 137.53 455.49 132.59 471.96 128.11 488.35 128.11 503.52 137.53 513.4 146.95 503.52 146.95 488.35 142.49 471.96"/><path class="cls-29" d="M137.53,514.41l-10.11-10.61v-15.53l.02-.1,4.48-16.39,5.61-18.72,5.61,18.7,4.5,16.49v15.53l-10.11,10.63Zm-8.72-11.17l8.72,9.16,8.72-9.16v-14.79l-4.44-16.29-4.26-14.24-4.28,14.26-4.44,16.27v14.79h-.02Z"/></g><g><polygon class="cls-14" points="141.31 490.2 137.53 483.71 133.77 490.2 130.34 496.67 130.34 502.66 137.53 506.57 144.74 502.66 144.74 496.67 141.31 490.2"/><path class="cls-29" d="M137.53,507.36l-7.88-4.28v-6.57l3.5-6.65,4.38-7.55,4.4,7.57,3.5,6.63v6.57l-7.9,4.28Zm-6.49-5.12l6.49,3.52,6.49-3.52v-5.4l-3.33-6.31-3.17-5.46-3.17,5.46-3.33,6.31v5.4Z"/></g><g><polygon class="cls-14" points="128.13 514.71 117.76 499.32 117.76 488.73 128.13 499.54 128.13 514.71"/><path class="cls-29" d="M117.06,486.99l11.77,12.29v17.72l-11.77-17.44v-12.56Zm10.37,12.84l-8.98-9.38v8.66l8.98,13.32v-12.6Z"/></g><g><polygon class="cls-28" points="117.76 509.53 117.76 481.6 113.02 486.34 113.02 494.54 117.76 509.53"/><path class="cls-29" d="M118.45,479.93v34.15l-6.11-19.43v-8.6l6.11-6.11Zm-1.39,25.09v-21.72l-3.33,3.33v7.81l3.33,10.59Z"/></g><g><polygon class="cls-14" points="133.29 469.61 135.22 473.3 133.29 481.98 129.19 484.45 133.29 469.61"/><path class="cls-29" d="M128.05,485.94l5.06-18.22,2.87,5.48-2.05,9.22-5.87,3.52Zm5.46-14.44l-3.17,11.45,2.35-1.41,1.81-8.14-1-1.89Z"/></g><g><polygon class="cls-14" points="141.77 469.61 139.84 473.3 141.77 481.98 145.89 484.45 141.77 469.61"/><path class="cls-29" d="M147.03,485.94l-5.87-3.52-2.05-9.22,2.87-5.48,5.06,18.22Zm-4.64-4.4l2.35,1.41-3.17-11.45-1,1.89,1.81,8.14Z"/></g><g><rect class="cls-14" x="113.04" y="488.73" width="4.72" height="5.81"/><path class="cls-29" d="M112.32,488.03h6.11v7.21h-6.11v-7.21Zm4.74,1.39h-3.33v4.42h3.33v-4.42Z"/></g><g><rect class="cls-14" x="157.34" y="488.73" width="4.72" height="5.81"/><path class="cls-29" d="M156.64,488.03h6.11v7.21h-6.11v-7.21Zm4.72,1.39h-3.33v4.42h3.33v-4.42Z"/></g><rect class="cls-29" x="136.83" y="455.49" width="1.39" height="14.63"/><rect class="cls-29" x="136.83" y="471.66" width="1.39" height="2.57"/><rect class="cls-29" x="136.83" y="476.18" width="1.39" height="1.85"/><g><polygon class="cls-28" points="150.15 509.99 150.15 505.89 152.4 502.68 155.31 502.33 150.15 509.99"/><path class="cls-29" d="M156.76,501.43l-7.31,10.83v-6.59l2.57-3.64,4.74-.6Zm-5.91,6.27l3.05-4.5-1.1,.14-1.95,2.77v1.59Z"/></g><g><polygon class="cls-28" points="124.95 509.99 124.95 505.89 122.7 502.68 119.77 502.33 124.95 509.99"/><path class="cls-29" d="M118.34,501.43l4.74,.6,2.57,3.64v6.59l-7.31-10.83Zm3.96,1.91l-1.1-.14,3.05,4.5v-1.59l-1.95-2.77Z"/></g><g><path class="cls-14" d="M139.43,513.86h-3.8v-13.5c0-1.06,.86-1.91,1.91-1.91h0c1.06,0,1.91,.86,1.91,1.91v13.5h-.02Z"/><path class="cls-29" d="M140.13,514.56h-5.2v-14.2c0-1.43,1.17-2.61,2.61-2.61s2.61,1.17,2.61,2.61v14.2h-.02Zm-3.82-1.39h2.41v-12.8c0-.66-.54-1.21-1.21-1.21s-1.21,.54-1.21,1.21v12.8h.02Z"/></g></g><text class="cls-20" transform="translate(35.55 167.31)"><tspan x="0" y="0">Gravity</tspan><tspan x="22.82" y="48">Space</tspan></text><text class="cls-3" transform="translate(62.48 369.44)"><tspan x="0" y="0" xml:space="preserve"> - </tspan><tspan class="cls-15" x="12.46" y="0">T</tspan><tspan class="cls-22" x="20.56" y="0">OU</tspan><tspan class="cls-32" x="41.9" y="0">C</tspan><tspan x="51.93" y="0">H THE </tspan><tspan class="cls-27" x="97.32" y="0">S</tspan><tspan class="cls-31" x="106.36" y="0">C</tspan><tspan class="cls-33" x="116.38" y="0">R</tspan><tspan class="cls-37" x="125.94" y="0">EE</tspan><tspan x="143.55" y="0">N - </tspan></text><g><line class="cls-11" x1="317.05" y1="360.7" x2="407.87" y2="360.7"/><path class="cls-9" d="M367.24,389.49c-.89-1.39-.47-3.25,.93-4.14l38.71-24.66-38.71-24.66c-1.4-.89-1.82-2.75-.93-4.14,.89-1.39,2.76-1.8,4.15-.92l42.69,27.19c.86,.55,1.39,1.51,1.39,2.53s-.53,1.98-1.39,2.53l-42.69,27.19c-.5,.32-1.06,.47-1.61,.47-.99,0-1.96-.49-2.54-1.39Z"/></g><text class="cls-8" transform="translate(1.5 29.77)"><tspan x="0" y="0">Main screen</tspan></text><rect id="Screen-2" class="cls-12" x="442.7" y="49.09" width="282.98" height="571.79" rx="38.26" ry="38.26"/><g id="Spaceship-2"><g><rect class="cls-14" x="602.25" y="502.4" width="14.28" height="12.54"/><path class="cls-29" d="M617.25,515.92h-15.67v-14.49h15.67v14.49Zm-14.3-1.95h12.88v-10.59h-12.88v10.59Z"/></g><g><polygon class="cls-14" points="618.84 514.71 629.21 499.32 629.21 488.73 618.84 499.54 618.84 514.71"/><path class="cls-29" d="M629.91,486.99v12.54l-11.77,17.44v-17.72l11.77-12.27Zm-1.39,12.13v-8.66l-8.98,9.38v12.6l8.98-13.32Z"/></g><g><polygon class="cls-28" points="629.21 509.53 629.21 481.6 633.93 486.34 633.93 494.54 629.21 509.53"/><path class="cls-29" d="M628.52,479.93l6.11,6.11v8.6l-6.11,19.43v-34.15Zm4.72,6.69l-3.33-3.33v21.72l3.33-10.57v-7.83Z"/></g><g><polygon class="cls-28" points="614.36 471.96 609.4 455.49 604.46 471.96 599.98 488.35 599.98 503.52 609.4 513.4 618.82 503.52 618.82 488.35 614.36 471.96"/><path class="cls-29" d="M609.4,514.41l-10.11-10.61v-15.53l.02-.1,4.48-16.39,5.61-18.72,5.61,18.7,4.5,16.49v15.53l-10.11,10.63Zm-8.72-11.17l8.72,9.16,8.72-9.16v-14.79l-4.44-16.29-4.26-14.24-4.28,14.26-4.44,16.27v14.79h-.02Z"/></g><g><polygon class="cls-14" points="613.19 490.2 609.4 483.71 605.64 490.2 602.21 496.67 602.21 502.66 609.4 506.57 616.61 502.66 616.61 496.67 613.19 490.2"/><path class="cls-29" d="M609.4,507.36l-7.88-4.28v-6.57l3.5-6.65,4.38-7.55,4.4,7.57,3.5,6.63v6.57l-7.9,4.28Zm-6.49-5.12l6.49,3.52,6.49-3.52v-5.4l-3.33-6.31-3.17-5.46-3.17,5.46-3.33,6.31v5.4Z"/></g><g><polygon class="cls-14" points="600 514.71 589.63 499.32 589.63 488.73 600 499.54 600 514.71"/><path class="cls-29" d="M588.93,486.99l11.77,12.29v17.72l-11.77-17.44v-12.56Zm10.37,12.84l-8.98-9.38v8.66l8.98,13.32v-12.6Z"/></g><g><polygon class="cls-28" points="589.63 509.53 589.63 481.6 584.89 486.34 584.89 494.54 589.63 509.53"/><path class="cls-29" d="M590.33,479.93v34.15l-6.11-19.43v-8.6l6.11-6.11Zm-1.39,25.09v-21.72l-3.33,3.33v7.81l3.33,10.59Z"/></g><g><polygon class="cls-14" points="605.16 469.61 607.09 473.3 605.16 481.98 601.06 484.45 605.16 469.61"/><path class="cls-29" d="M599.92,485.94l5.06-18.22,2.87,5.48-2.05,9.22-5.87,3.52Zm5.46-14.44l-3.17,11.45,2.35-1.41,1.81-8.14-1-1.89Z"/></g><g><polygon class="cls-14" points="613.64 469.61 611.71 473.3 613.64 481.98 617.77 484.45 613.64 469.61"/><path class="cls-29" d="M618.9,485.94l-5.87-3.52-2.05-9.22,2.87-5.48,5.06,18.22Zm-4.64-4.4l2.35,1.41-3.17-11.45-1,1.89,1.81,8.14Z"/></g><g><rect class="cls-14" x="584.91" y="488.73" width="4.72" height="5.81"/><path class="cls-29" d="M584.2,488.03h6.11v7.21h-6.11v-7.21Zm4.74,1.39h-3.33v4.42h3.33v-4.42Z"/></g><g><rect class="cls-14" x="629.21" y="488.73" width="4.72" height="5.81"/><path class="cls-29" d="M628.52,488.03h6.11v7.21h-6.11v-7.21Zm4.72,1.39h-3.33v4.42h3.33v-4.42Z"/></g><rect class="cls-29" x="608.71" y="455.49" width="1.39" height="14.63"/><rect class="cls-29" x="608.71" y="471.66" width="1.39" height="2.57"/><rect class="cls-29" x="608.71" y="476.18" width="1.39" height="1.85"/><g><polygon class="cls-28" points="622.03 509.99 622.03 505.89 624.28 502.68 627.18 502.33 622.03 509.99"/><path class="cls-29" d="M628.64,501.43l-7.31,10.83v-6.59l2.57-3.64,4.74-.6Zm-5.91,6.27l3.05-4.5-1.1,.14-1.95,2.77v1.59Z"/></g><g><polygon class="cls-28" points="596.82 509.99 596.82 505.89 594.57 502.68 591.64 502.33 596.82 509.99"/><path class="cls-29" d="M590.21,501.43l4.74,.6,2.57,3.64v6.59l-7.31-10.83Zm3.96,1.91l-1.1-.14,3.05,4.5v-1.59l-1.95-2.77Z"/></g><g><path class="cls-14" d="M611.3,513.86h-3.8v-13.5c0-1.06,.86-1.91,1.91-1.91h0c1.06,0,1.91,.86,1.91,1.91v13.5h-.02Z"/><path class="cls-29" d="M612,514.56h-5.2v-14.2c0-1.43,1.17-2.61,2.61-2.61s2.61,1.17,2.61,2.61v14.2h-.02Zm-3.82-1.39h2.41v-12.8c0-.66-.54-1.21-1.21-1.21s-1.21,.54-1.21,1.21v12.8h.02Z"/></g></g><text class="cls-8" transform="translate(442.7 29.77)"><tspan x="0" y="0">Game screen</tspan></text><text class="cls-21" transform="translate(558.58 105.99)"><tspan x="0" y="0">3</tspan></text><polygon class="cls-25" points="1002.32 167.63 1019.73 185.05 1002.32 172.97 984.9 185.05 1002.32 167.63"/><polygon class="cls-25" points="1002.32 158.93 1019.73 176.34 1002.32 164.26 984.9 176.34 1002.32 158.93"/><polygon class="cls-25" points="1002.32 150.22 1019.73 167.63 1002.32 155.56 984.9 167.63 1002.32 150.22"/><path class="cls-24" d="M886.18,126.03h48.77c7.29,0,13.21,5.92,13.21,13.21v56.15c0,7.29-5.92,13.21-13.21,13.21h-48.77V126.03h0Z"/><path class="cls-24" d="M1056.48,126.03h99.47c7.29,0,13.21,5.92,13.21,13.21v56.15c0,7.29-5.92,13.21-13.21,13.21h-99.47V126.03h0Z" transform="translate(2225.64 334.62) rotate(180)"/><polygon class="cls-35" points="1117.37 167.46 1085.29 135.38 1117.37 157.63 1149.45 135.38 1117.37 167.46"/><polygon class="cls-35" points="1117.37 183.5 1085.29 151.42 1117.37 173.67 1149.45 151.42 1117.37 183.5"/><polygon class="cls-35" points="1117.37 199.53 1085.29 167.46 1117.37 189.71 1149.45 167.46 1117.37 199.53"/><g><line class="cls-11" x1="760.52" y1="360.7" x2="851.34" y2="360.7"/><path class="cls-9" d="M810.72,389.49c-.89-1.39-.47-3.25,.93-4.14l38.71-24.66-38.71-24.66c-1.4-.89-1.82-2.75-.93-4.14s2.76-1.8,4.15-.92l42.69,27.19c.86,.55,1.39,1.51,1.39,2.53s-.53,1.98-1.39,2.53l-42.69,27.19c-.5,.32-1.06,.47-1.61,.47-.99,0-1.96-.49-2.54-1.39Z"/></g><text class="cls-8" transform="translate(886.18 29.77)"><tspan x="0" y="0">Player&apos;s collision</tspan></text><polygon class="cls-25" points="965.03 439.43 982.45 456.84 965.03 444.77 947.62 456.84 965.03 439.43"/><polygon class="cls-25" points="965.03 430.72 982.45 448.14 965.03 436.06 947.62 448.14 965.03 430.72"/><polygon class="cls-25" points="965.03 422.02 982.45 439.43 965.03 427.35 947.62 439.43 965.03 422.02"/><path class="cls-24" d="M886.18,397.82h13.47c7.29,0,13.21,5.92,13.21,13.21v56.15c0,7.29-5.92,13.21-13.21,13.21h-13.47v-82.57h0Z"/><path class="cls-24" d="M1019.2,397.82h134.76c7.29,0,13.21,5.92,13.21,13.21v56.15c0,7.29-5.92,13.21-13.21,13.21h-134.76v-82.57h0Z" transform="translate(2186.36 878.21) rotate(180)"/><polygon class="cls-35" points="1115.38 439.25 1083.3 407.17 1115.38 429.42 1147.46 407.17 1115.38 439.25"/><polygon class="cls-35" points="1115.38 455.29 1083.3 423.21 1115.38 445.46 1147.46 423.21 1115.38 455.29"/><polygon class="cls-35" points="1115.38 471.33 1083.3 439.25 1115.38 461.5 1147.46 439.25 1115.38 471.33"/><text class="cls-21" transform="translate(978.14 105.99)"><tspan x="0" y="0">47</tspan></text><rect id="Screen-3" class="cls-12" x="886.18" y="49.09" width="282.98" height="571.79" rx="38.26" ry="38.26"/><g><path class="cls-9" d="M1017.64,506.38c-.93-.51-.99-1.55-1.41-2.36-.59-1.12-1.21-1.21-2.37-.65-2.03,.99-4.13,1.8-6.37,2.26,.72-1.27,2.09-1.62,3.2-2.28,1.29-.77,2.72-1.3,4.08-1.96,1.07-.52,1.3-1.64,.54-2.55-2.28-2.73-1.86-5.48,1.15-7.54,.35-.24,.74-.43,.58-.95-.17-.53-.29-1.06-.11-1.61,.15-.48,.27-.96,.43-1.53-3.06-2.17-4-5.18-3.19-8.79-1.25-.65-2.65-.59-3.83-1.45,1.07-.35,2.06,0,3.03,.13,.88,.12,1.5-.02,2.11-.8,1.92-2.47,4.52-3.28,7.57-2.73,.66,.12,1.15,.45,1.59,.97,.48,.57,1.04,.48,1.18-.27,.14-.8,.73-1.35,.91-2.1-.8-1.35-2.66-1.26-3.6-2.39,1.23-1.43,2.14,.2,3.35,.12-.04-2.3,.39-4.46,1.91-6.21-.36-.91-1.18-1.47-1.38-2.38-.16-.71-.85-.25-1.24-.6-1.81-1.65-3.73-3.2-5.22-5.17-.2-.27-.47-.4-.72-.58-2.17-1.6-3.72-3.84-5.81-5.49,.11-.14,.12-.16,.14-.18,.03,.03,.05,.09,.08,.08,.67-.06,1.21,.17,1.73,.61,4.61,3.81,9.24,7.61,13.87,11.41,.34,.28,.65,.56,1.21,.46,4.18-.73,4.18-.71,7.95,1.03,.61-.34,.45-.78,.19-1.27-1.1-2.16-2.14-4.35-3.3-6.47-.3-.55-.3-1-.28-1.56,.74-.08,1.07,.35,1.41,.86,1.3,1.93,2.63,3.85,3.98,5.75,.24,.34,.43,.86,1.03,.76,.53-.09,.55-.59,.66-.95,.48-1.57,1.23-2.97,2.47-4.05,.66-.58,.36-1.18,.21-1.75-.31-1.21-.34-2.41-.46-3.86,1.57,1.32,.95,3.35,1.95,4.44,2.53-.75,4.85-1.56,7.32-.92,.6,.16,.88-.39,1.27-.15,1.61,1.64,3.75,2.81,4.58,5.15,1.31-.35,2.08-.88,2.49-2.18,1.18-3.8,2.52-7.55,3.84-11.3,.41-1.16,.98-2.27,1.62-3.72-.26,2.35-.62,4.35-1.07,6.34-.64,2.81-1.23,5.63-1.86,8.44-.34,1.51,.32,2.6,1.89,2.88,.81,.14,1.64,.16,2.39,.56,.47,.25,.77-.03,1.03-.38,.15-.21,.38-.27,.6-.11,.17,.13,.41,.29,.24,.55-.93,1.36,.59,2.09,.71,3.34,1.98-.87,3.82-.93,5.57,.28,.56,.39,.94-.15,1.3-.45,2.22-1.83,4.43-3.69,6.64-5.53,.93-.77,1.73-1.76,3.08-1.85,.6-.04,.29-.66,.6-.87-1.05,2.49-2.9,4.25-4.99,5.94-1.76,1.42-3.37,3.14-4.68,4.98-.59,.82-.65,2.42-.27,3.41,.33,.87,1.53,1.53,2.48,2.01,.62,.31,1.34-.36,2.05-.52,.69-.15,1.26-.32,1.41,.63,.06,.36,.24,.59,.62,.59,3.58,.05,5.95,1.96,7.6,4.96,.28,.51,.5,.87,1.23,.66,.61-.17,1.21,.13,1.55,.79-.48,.66-1.34,.37-1.92,.96,.39,1.84,.07,3.71-.65,5.58,1.28,.61,2.35,1.36,3.01,2.57,.27,.49,.77,.44,1.21,.48,5.1,.46,10.2,.92,15.31,1.37,.45,.04,.93-.02,1.15,.65-.95,.41-1.96,.28-2.89,.17-3.65-.45-7.3-.05-10.94-.2-2.04-.09-3.55,.12-4.35,2.39-.45,1.28-1.88,1.82-3.29,1.89-.76,.03-1.29,.24-1.62,.98-.26,.59-.78,1.01-1.27,1.42-.74,.61-.68,1.3,.19,1.75,.89,.46,1.81,.85,2.84,1.33-.73,.68-.24,1.19,.08,1.79,1.6,2.94,2.03,5.89,.23,8.97-.36,.62-1.2,1.42-.32,2.22-1.67,.94-3.15,1.89-4.86,2.38-2,.58-3.96,.67-5.93-.02-.69-.24-1.32-.28-1.94,.27,.15,.88,1.58,1.45,.7,2.6-.86-.21-1.38-.85-1.85-1.52-1.04-1.5-1.96-1.56-3.06-.15-1.35,1.74-3.09,2.51-5.51,2.01,.78,3,2.26,5.62,2.88,8.59-.93,0-1.05-.56-1.27-.98-1-1.95-2.02-3.9-2.97-5.88-.36-.74-.64-1.02-1.55-.66-1.39,.56-2.83,.56-4.25-.15-1.16-.58-2.18,.16-2.09,1.43,.21,2.81,.36,5.63,.69,8.43,.15,1.27-.56,2.52,.11,3.76-1.46-3.96-1.9-8.12-2.9-12.36-1.57-.06-3.25,.28-4.8-.37-.8-.33-1.4-.26-1.74,.52-.84-.4-.13-1.35-.87-1.88-.95-.68-1.65-1.2-2.97-.58-1.79,.83-3.47,.03-5-1.35-1.91,2.53-2.64,5.65-4.78,7.97-.14-2.83,1.44-5.2,2.15-7.97-1.62-.76-2.73-2.02-3.07-3.93-1.13,.56-1.28,2.08-2.63,2.4-.11-.97,.29-1.71,.66-2.48,.19-.38,.63-.79,.19-1.23-.36-.37-.81-.51-1.37-.28-2.28,.95-4.55,.94-6.75-.25-.41-.22-.78-.08-1.19,0-1.22,.24-2.47,.46-3.67,.08-1.1-.35-1.97-.03-2.79,.63-.45,.36-.92,.59-1.56,.37,.47-1.01,2.03-1.44,1.54-2.92,1.76-.23,3.55-.31,5.15-1.2,.35-.19,.65-.17,1.03,0,1.65,.79,3.2,2.02,5.25,1.19,.32-.13,.8,.19,1.19,.17,1.21-.08,2.65,.76,3.49-.99,.21-.44,1.2-.84,1.78-.5,1.46,.85,3,1.27,4.67,1.32,.52,.02,.87,.27,1.16,.79,1.83,3.28,4.57,5.3,8.31,6.06,3.68,.75,6.88-.24,9.76-2.4,.9-.67,1.32-.62,2.02,.11,3.36,3.49,10.18,3.55,13.29-.89,.43-.62,.8-.74,1.46-.42,1.12,.54,2.35,.41,3.49,.14,.65-.15,1.14-.2,1.8-.02,1.18,.31,2.44,.4,3.62-.16,2.57-1.22,3.56-4.53,2.07-7.1-.36-.62-.49-1.14-.36-1.9,.21-1.23,.27-2.46-.43-3.71-.61-1.08-1.74-1.53-2.49-2.49,.93-.67,1.86-1.2,2.6-1.91,.75-.72,1.46-1.55,1.92-2.47,.46-.92,.94-1.62,2.01-1.71-.02-.73,.36-1.45-.55-1.86-.32-.15-.25-.58-.18-.88,.48-2.18-.22-4.09-1.27-5.94-.54-.96-1.1-1.85-.47-3.14,.91-1.89-.66-4.94-2.39-5.62-2.51-.97-4.9-.37-6.37,1.8-.31,.46-.33,1.13-.85,1.44-.3-.15-.44-.32-.47-.56-.29-2.66-2.3-4.29-3.93-6.01-1.3-1.37-3.3-2.03-5.22-2.06-1.32-.02-1.67-.69-2.09-1.63-1.73-3.89-4.8-5.99-8.98-6.36-1.2-.11-1.97-.34-2.65-1.42-1.28-2.03-4.27-2.52-6.31-1.27-2.49,1.54-2.9,3.76-2.08,6.43-5.34-2.09-10.88-.08-11.81,6.76-.41,.27-.89,.18-1.33,.15-4.95-.32-9.14,2.93-10.62,7.25-.41,1.19-.74,2.34-1.48,3.45-1.94,2.9-2.44,6.14-1.23,9.51,.22,.6,.27,1.13-.11,1.68-1.09,1.6-1.46,3.42-1.52,5.31-.02,.68-.25,1.03-.82,1.41-1.65,1.09-2.78,2.51-2.51,4.67,.1,.79-.06,1.55-.31,2.29Z"/><path class="cls-44" d="M1017.64,506.38c.25-.74,.41-1.5,.31-2.29-.27-2.15,.86-3.58,2.51-4.67,.57-.38,.8-.73,.82-1.41,.06-1.89,.43-3.71,1.52-5.31,.38-.55,.33-1.08,.11-1.68-1.21-3.37-.71-6.61,1.23-9.51,.74-1.11,1.07-2.26,1.48-3.45,1.48-4.32,5.67-7.57,10.62-7.25,.44,.03,.92,.12,1.33-.15,.92-6.84,6.47-8.86,11.81-6.76-.82-2.67-.41-4.89,2.08-6.43,2.04-1.26,5.02-.76,6.31,1.27,.68,1.07,1.46,1.31,2.65,1.42,4.18,.37,7.25,2.47,8.98,6.36,.42,.94,.77,1.62,2.09,1.63,1.93,.03,3.93,.68,5.22,2.06,1.63,1.73,3.64,3.35,3.93,6.01,.03,.24,.17,.42,.47,.56,.52-.31,.53-.98,.85-1.44,1.47-2.18,3.86-2.78,6.37-1.8,1.73,.67,3.31,3.72,2.39,5.62-.62,1.29-.07,2.18,.47,3.14,1.05,1.86,1.74,3.77,1.27,5.94-.07,.31-.14,.74,.18,.88,.9,.41,.53,1.13,.55,1.86-1.07,.1-1.55,.8-2.01,1.71-.46,.92-1.17,1.75-1.92,2.47-.75,.72-1.67,1.24-2.6,1.91,.74,.96,1.88,1.41,2.49,2.49,.7,1.25,.63,2.48,.43,3.71-.13,.76,0,1.28,.36,1.9,1.48,2.57,.49,5.88-2.07,7.1-1.18,.56-2.43,.47-3.62,.16-.66-.17-1.16-.13-1.8,.02-1.14,.27-2.36,.4-3.49-.14-.67-.32-1.03-.2-1.46,.42-3.11,4.45-9.94,4.38-13.29,.89-.7-.73-1.12-.78-2.02-.11-2.88,2.15-6.08,3.15-9.76,2.4-3.74-.77-6.48-2.78-8.31-6.06-.29-.52-.64-.77-1.16-.79-1.67-.06-3.21-.47-4.67-1.32-.59-.34-1.58,.07-1.78,.5-.84,1.75-2.28,.91-3.49,.99-.39,.03-.87-.3-1.19-.17-2.05,.83-3.6-.4-5.25-1.19-.38-.18-.68-.2-1.03,0-1.6,.9-3.39,.97-5.15,1.2-1.31-.49-2.19-1.42-2.75-2.68Zm10.48-4.5c-2.14-.73-2.46-2.73-3.13-4.52-.57,.28-.79,.72-1.02,1.25-.56,1.3,.09,2.53,.05,3.79-.06,1.75,.91,2.42,2.69,2.43,1.08,.01,2.3-.3,3.29,.46,2.31,1.76,4.18,1.87,6.43,.1,1.12-.88,2.02-.9,3.22-.19,.7,.41,1.61,.68,2.49,.39,.68-.23,1.05,.01,1.49,.56,1.07,1.32,2.5,2.18,4.21,2.31,1.86,.15,3.75-.29,5.59,.53,.63,.28,1.15,.39,1.54,1.09,1.21,2.17,3.3,2.83,5.32,1.65,.73-.43,1.2-.26,1.87-.01,2.23,.82,4.51,.98,6.51-.53,1.31-1,2.72-1.54,4.29-1.9,1.31-.29,2.35-1.15,2.88-2.33,.7-1.56,1.38-3.05,3.05-3.82,.48-.22,.72-.72,.84-1.21,.42-1.7,.44-3.46,1.11-5.14,.29-.72,.46-1.05,1.22-1.32,1.36-.48,2.3-1.5,2.41-3.02,.05-.74,.28-1.09,1-1.39,2.09-.88,2.85-3.84,1.39-5.56-.54-.64-.89-1.33-.92-2.07-.08-1.69-1.27-2.3-2.51-2.94-1.49-.78-2.67,.22-3.93,.77-.1-.21-.19-.32-.2-.44-.5-4.69-2.21-6.52-6.8-7.22-.45-.07-.8-.21-1.03-.58-.97-1.51-2.41-2.33-4.11-2.69-.56-.12-.9-.34-1.13-.84-1.74-3.91-7.77-5.21-10.98-1.17-1.18,1.49-2.74,1.64-4.19,.47-1.19-.95-2.54-.92-3.77-.52-.73,.23-1.27,.22-1.93,.03-2.61-.75-5.5,.18-6.44,3.07-.51,1.56-1.43,2.55-2.86,3.25-1.31,.64-1.86,1.85-1.64,3.31,1.09,.17,2.38-.21,3.38,1.1-1.54-.32-2.85-.7-4.23,.01-1.35,.69-1.95,1.86-2.58,3.12-.67-.92,.32-1.6,.36-2.46-2.17,.18-3.63,1.02-4.44,3.11-.48,1.25-.21,2.29,0,3.45,.16,.89,.61,1.96-.26,2.68-2.42,2.01-3.04,4.7-1.58,7.41,.45-2.82,1.87-4.89,3.55-5.18-.04,.42-.4,.58-.66,.83-2.17,2.11-2.34,6.22-.31,8.41,.42,.45,.55,.92,.52,1.49h0Z"/><path class="cls-23" d="M1028.13,501.88c.03-.57-.1-1.04-.52-1.49-2.03-2.2-1.87-6.31,.31-8.41,.26-.25,.62-.4,.66-.83-1.68,.29-3.09,2.36-3.55,5.18-1.45-2.7-.83-5.4,1.58-7.41,.87-.72,.42-1.78,.26-2.68-.21-1.16-.48-2.21,0-3.45,.81-2.09,2.27-2.93,4.44-3.11-.04,.86-1.03,1.54-.36,2.46,.63-1.26,1.22-2.43,2.58-3.12,1.39-.71,2.7-.33,4.23-.01-.99-1.31-2.29-.93-3.38-1.1-.22-1.45,.33-2.66,1.64-3.31,1.43-.7,2.35-1.69,2.86-3.25,.94-2.89,3.83-3.82,6.44-3.07,.65,.19,1.2,.2,1.93-.03,1.23-.4,2.58-.43,3.77,.52,1.45,1.17,3.01,1.02,4.19-.47,3.21-4.04,9.24-2.74,10.98,1.17,.22,.51,.57,.73,1.13,.84,1.7,.36,3.14,1.18,4.11,2.69,.23,.36,.59,.51,1.03,.58,4.59,.7,6.3,2.53,6.8,7.22,.01,.12,.11,.24,.2,.44,1.26-.55,2.44-1.55,3.93-.77,1.24,.64,2.43,1.25,2.51,2.94,.03,.74,.38,1.42,.92,2.07,1.45,1.72,.7,4.68-1.39,5.56-.71,.3-.95,.65-1,1.39-.1,1.52-1.05,2.55-2.41,3.02-.76,.27-.93,.6-1.22,1.32-.67,1.68-.69,3.44-1.11,5.14-.12,.49-.37,.99-.84,1.21-1.67,.77-2.34,2.26-3.05,3.82-.53,1.19-1.58,2.04-2.88,2.33-1.57,.35-2.98,.9-4.29,1.9-1.99,1.52-4.27,1.35-6.51,.53-.67-.24-1.13-.42-1.87,.01-2.02,1.18-4.11,.52-5.32-1.65-.39-.69-.91-.8-1.54-1.09-1.84-.82-3.73-.38-5.59-.53-1.71-.14-3.13-.99-4.21-2.31-.44-.54-.81-.78-1.49-.56-.88,.29-1.79,.03-2.49-.39-1.19-.71-2.1-.69-3.22,.19-2.25,1.77-4.11,1.66-6.43-.1-.99-.76-2.2-.44-3.29-.46-1.78-.02-2.74-.68-2.69-2.43,.04-1.26-.61-2.49-.05-3.79,.23-.53,.45-.97,1.02-1.25,.66,1.79,.99,3.8,3.13,4.52,.06,.19,.04,.46,.38,.37,.09-.35-.18-.32-.38-.37Z"/><path class="cls-43" d="M1028.13,501.88c.19,.05,.46,.03,.38,.37-.35,.1-.32-.18-.38-.37,0,0,0,0,0,0Z"/></g><g><path class="cls-9" d="M1093.56,469.8c.82,.45,.86,1.36,1.24,2.07,.51,.98,1.06,1.06,2.07,.57,1.77-.86,3.61-1.57,5.57-1.98-.63,1.11-1.83,1.41-2.79,2-1.12,.68-2.38,1.14-3.57,1.71-.94,.45-1.14,1.44-.48,2.23,1.99,2.38,1.63,4.8-1.01,6.59-.31,.21-.65,.37-.5,.83,.15,.46,.25,.92,.1,1.41-.13,.42-.24,.84-.38,1.34,2.68,1.9,3.49,4.53,2.79,7.69,1.1,.57,2.32,.51,3.35,1.27-.93,.3-1.8,0-2.65-.12-.77-.1-1.31,.02-1.84,.7-1.68,2.16-3.95,2.87-6.62,2.38-.58-.11-1.01-.39-1.39-.85-.42-.5-.91-.42-1.03,.23-.13,.7-.64,1.18-.8,1.84,.7,1.18,2.32,1.1,3.14,2.09-1.08,1.25-1.87-.18-2.93-.1,.03,2.01-.34,3.9-1.67,5.43,.32,.8,1.03,1.29,1.21,2.08,.14,.62,.75,.22,1.08,.53,1.59,1.44,3.26,2.8,4.57,4.52,.18,.24,.41,.35,.63,.51,1.9,1.4,3.25,3.36,5.08,4.8-.09,.12-.11,.14-.12,.16-.02-.03-.05-.07-.07-.07-.58,.05-1.06-.15-1.51-.53-4.03-3.34-8.08-6.66-12.13-9.98-.3-.24-.57-.49-1.06-.4-3.65,.64-3.65,.62-6.95-.9-.53,.3-.39,.68-.17,1.11,.96,1.89,1.87,3.8,2.89,5.66,.26,.48,.26,.87,.25,1.37-.65,.07-.93-.3-1.23-.75-1.14-1.69-2.3-3.37-3.48-5.03-.21-.3-.38-.75-.9-.66-.46,.08-.48,.51-.57,.83-.42,1.37-1.07,2.6-2.16,3.54-.58,.5-.31,1.03-.18,1.53,.27,1.05,.3,2.11,.4,3.37-1.37-1.16-.83-2.93-1.7-3.88-2.21,.65-4.24,1.37-6.4,.8-.53-.14-.77,.34-1.11,.13-1.41-1.44-3.28-2.46-4.01-4.5-1.14,.31-1.82,.77-2.17,1.9-1.03,3.32-2.2,6.6-3.36,9.88-.36,1.02-.86,1.98-1.42,3.25,.23-2.06,.54-3.8,.93-5.54,.56-2.46,1.08-4.92,1.63-7.38,.29-1.32-.28-2.28-1.65-2.52-.71-.13-1.43-.14-2.09-.49-.42-.22-.67,.02-.9,.34-.13,.18-.33,.24-.52,.1-.15-.11-.36-.25-.21-.48,.82-1.19-.52-1.83-.62-2.92-1.74,.76-3.34,.81-4.87-.24-.49-.34-.82,.13-1.14,.4-1.94,1.6-3.87,3.23-5.81,4.84-.81,.68-1.51,1.54-2.69,1.62-.52,.04-.25,.57-.52,.76,.92-2.17,2.54-3.72,4.37-5.2,1.54-1.24,2.94-2.75,4.09-4.36,.51-.72,.57-2.12,.24-2.98-.29-.76-1.34-1.33-2.17-1.76-.54-.28-1.18,.32-1.79,.45-.6,.13-1.11,.28-1.23-.55-.05-.31-.21-.51-.54-.52-3.13-.04-5.2-1.72-6.65-4.34-.24-.44-.43-.76-1.08-.57-.54,.15-1.06-.12-1.36-.69,.42-.58,1.17-.32,1.68-.84-.34-1.61-.07-3.25,.57-4.88-1.12-.53-2.05-1.19-2.63-2.25-.24-.43-.68-.38-1.06-.42-4.46-.41-8.92-.81-13.39-1.2-.4-.03-.81,.02-1.01-.57,.83-.36,1.71-.24,2.53-.14,3.19,.39,6.38,.04,9.57,.18,1.79,.08,3.11-.1,3.81-2.09,.39-1.12,1.65-1.59,2.88-1.65,.66-.03,1.13-.21,1.41-.86,.23-.52,.68-.88,1.11-1.24,.64-.54,.59-1.14-.16-1.53-.78-.4-1.58-.74-2.48-1.16,.64-.59,.21-1.04-.07-1.57-1.4-2.57-1.77-5.15-.2-7.85,.32-.54,1.05-1.24,.28-1.94,1.46-.82,2.75-1.65,4.25-2.08,1.75-.5,3.46-.59,5.18,.02,.61,.21,1.15,.25,1.69-.24-.13-.77-1.38-1.27-.61-2.27,.75,.19,1.21,.74,1.62,1.33,.91,1.31,1.72,1.37,2.68,.13,1.18-1.52,2.7-2.19,4.82-1.75-.69-2.63-1.97-4.92-2.52-7.51,.81,0,.92,.49,1.11,.86,.88,1.71,1.76,3.41,2.6,5.14,.31,.64,.56,.89,1.35,.57,1.21-.49,2.48-.49,3.72,.13,1.01,.51,1.91-.14,1.82-1.25-.18-2.46-.32-4.92-.6-7.37-.13-1.11,.49-2.2-.1-3.29,1.27,3.46,1.66,7.1,2.54,10.81,1.37,.05,2.84-.24,4.2,.32,.7,.29,1.22,.23,1.52-.46,.73,.35,.12,1.18,.76,1.64,.83,.59,1.45,1.05,2.6,.51,1.57-.73,3.03-.03,4.37,1.18,1.67-2.21,2.31-4.94,4.18-6.97,.12,2.47-1.26,4.55-1.88,6.97,1.42,.66,2.39,1.77,2.68,3.44,.99-.49,1.12-1.82,2.3-2.1,.09,.85-.26,1.5-.58,2.17-.16,.34-.55,.69-.17,1.08,.32,.32,.71,.45,1.2,.24,1.99-.83,3.98-.82,5.91,.22,.36,.19,.69,.07,1.04,0,1.06-.21,2.16-.4,3.21-.07,.96,.3,1.72,.02,2.44-.55,.4-.31,.81-.51,1.36-.33-.41,.88-1.78,1.26-1.34,2.56-1.54,.2-3.1,.27-4.5,1.05-.3,.17-.57,.15-.9,0-1.44-.69-2.8-1.76-4.59-1.04-.28,.11-.7-.17-1.04-.15-1.06,.07-2.32-.67-3.06,.87-.18,.38-1.05,.74-1.56,.44-1.28-.74-2.63-1.11-4.09-1.16-.46-.02-.76-.24-1.01-.69-1.6-2.87-4-4.63-7.27-5.3-3.22-.66-6.02,.21-8.54,2.09-.79,.59-1.15,.54-1.77-.1-2.94-3.05-8.91-3.11-11.62,.78-.38,.54-.7,.65-1.28,.37-.98-.48-2.05-.36-3.05-.12-.56,.13-1,.17-1.58,.02-1.03-.27-2.13-.35-3.16,.14-2.25,1.06-3.11,3.96-1.81,6.21,.32,.55,.42,1,.31,1.66-.18,1.07-.24,2.15,.37,3.24,.53,.95,1.53,1.34,2.17,2.18-.81,.59-1.62,1.05-2.28,1.67-.65,.63-1.28,1.36-1.68,2.16-.4,.8-.82,1.41-1.76,1.5,.02,.64-.31,1.27,.48,1.63,.28,.13,.22,.5,.16,.77-.42,1.9,.19,3.57,1.11,5.2,.47,.84,.96,1.61,.41,2.74-.8,1.65,.58,4.32,2.09,4.91,2.19,.85,4.28,.33,5.57-1.58,.27-.41,.29-.99,.74-1.26,.26,.13,.39,.28,.41,.49,.26,2.33,2.01,3.75,3.44,5.26,1.13,1.2,2.88,1.77,4.57,1.8,1.16,.02,1.46,.61,1.83,1.43,1.51,3.4,4.2,5.24,7.86,5.56,1.05,.09,1.73,.3,2.32,1.24,1.12,1.78,3.73,2.21,5.52,1.11,2.18-1.34,2.54-3.29,1.82-5.62,4.67,1.83,9.52,.07,10.33-5.92,.36-.24,.78-.15,1.16-.13,4.33,.28,8-2.56,9.29-6.34,.36-1.04,.65-2.05,1.29-3.02,1.69-2.54,2.13-5.37,1.07-8.32-.19-.53-.23-.98,.1-1.47,.96-1.4,1.28-2.99,1.33-4.65,.02-.59,.22-.9,.72-1.23,1.44-.95,2.43-2.2,2.2-4.08-.09-.69,.05-1.35,.27-2Z"/><path class="cls-44" d="M1093.56,469.8c-.22,.65-.36,1.31-.27,2,.24,1.88-.76,3.13-2.2,4.08-.5,.33-.7,.64-.72,1.23-.05,1.65-.38,3.25-1.33,4.65-.33,.48-.29,.94-.1,1.47,1.06,2.95,.62,5.78-1.07,8.32-.65,.97-.94,1.98-1.29,3.02-1.29,3.78-4.95,6.62-9.29,6.34-.39-.02-.8-.11-1.16,.13-.81,5.98-5.66,7.74-10.33,5.92,.72,2.33,.36,4.28-1.82,5.62-1.78,1.1-4.39,.67-5.52-1.11-.59-.94-1.27-1.15-2.32-1.24-3.66-.32-6.34-2.16-7.86-5.56-.37-.82-.67-1.41-1.83-1.43-1.69-.02-3.43-.6-4.57-1.8-1.43-1.51-3.19-2.93-3.44-5.26-.02-.21-.15-.36-.41-.49-.45,.27-.47,.85-.74,1.26-1.29,1.9-3.38,2.43-5.57,1.58-1.52-.59-2.89-3.26-2.09-4.91,.55-1.13,.06-1.91-.41-2.74-.92-1.63-1.53-3.29-1.11-5.2,.06-.27,.12-.64-.16-.77-.79-.36-.46-.99-.48-1.63,.94-.08,1.36-.7,1.76-1.5,.4-.8,1.02-1.53,1.68-2.16,.65-.63,1.46-1.09,2.28-1.67-.65-.84-1.64-1.23-2.17-2.18-.61-1.09-.55-2.17-.37-3.24,.11-.66,0-1.12-.31-1.66-1.3-2.24-.43-5.14,1.81-6.21,1.03-.49,2.13-.41,3.16-.14,.58,.15,1.01,.12,1.58-.02,1-.24,2.07-.35,3.05,.12,.58,.28,.9,.18,1.28-.37,2.72-3.89,8.69-3.83,11.62-.78,.61,.64,.98,.69,1.77,.1,2.52-1.88,5.32-2.75,8.54-2.09,3.27,.67,5.66,2.43,7.27,5.3,.25,.45,.56,.67,1.01,.69,1.46,.05,2.81,.41,4.09,1.16,.51,.3,1.38-.06,1.56-.44,.73-1.53,1.99-.79,3.06-.87,.35-.02,.76,.26,1.04,.15,1.79-.73,3.15,.35,4.59,1.04,.33,.16,.6,.18,.9,0,1.4-.79,2.97-.85,4.5-1.05,1.14,.43,1.91,1.24,2.4,2.34Zm-9.17,3.93c1.87,.63,2.15,2.39,2.74,3.96,.5-.25,.69-.63,.89-1.09,.49-1.13-.08-2.21-.04-3.31,.05-1.53-.79-2.11-2.35-2.13-.95-.01-2.01,.26-2.88-.4-2.02-1.54-3.65-1.64-5.62-.09-.98,.77-1.77,.79-2.81,.17-.61-.36-1.41-.59-2.17-.34-.6,.2-.92-.01-1.31-.49-.94-1.16-2.18-1.9-3.68-2.02-1.63-.13-3.28,.26-4.89-.46-.55-.25-1.01-.34-1.35-.95-1.06-1.9-2.88-2.48-4.65-1.45-.64,.37-1.05,.22-1.63,.01-1.95-.71-3.95-.86-5.69,.47-1.15,.87-2.38,1.35-3.75,1.66-1.14,.26-2.05,1-2.52,2.04-.61,1.37-1.2,2.67-2.66,3.34-.42,.19-.63,.63-.74,1.06-.37,1.48-.38,3.03-.97,4.49-.25,.63-.4,.92-1.06,1.15-1.19,.42-2.01,1.31-2.1,2.64-.04,.65-.25,.96-.87,1.22-1.83,.77-2.49,3.36-1.22,4.86,.47,.56,.78,1.16,.81,1.81,.07,1.48,1.11,2.01,2.19,2.57,1.3,.68,2.33-.19,3.44-.67,.09,.18,.17,.28,.18,.39,.44,4.1,1.93,5.7,5.95,6.31,.39,.06,.7,.19,.9,.5,.85,1.32,2.11,2.04,3.59,2.35,.49,.1,.79,.3,.99,.74,1.52,3.42,6.8,4.56,9.6,1.02,1.03-1.3,2.4-1.44,3.67-.41,1.04,.84,2.22,.8,3.3,.46,.64-.2,1.11-.19,1.69-.03,2.28,.66,4.81-.16,5.63-2.68,.44-1.37,1.25-2.23,2.5-2.84,1.15-.56,1.63-1.62,1.44-2.89-.95-.15-2.08,.19-2.95-.96,1.34,.28,2.49,.61,3.7,0,1.18-.6,1.7-1.63,2.25-2.73,.59,.81-.28,1.4-.31,2.15,1.9-.16,3.17-.89,3.88-2.72,.42-1.09,.19-2,0-3.02-.14-.78-.53-1.71,.23-2.34,2.11-1.75,2.66-4.11,1.38-6.48-.4,2.46-1.63,4.28-3.1,4.53,.04-.37,.35-.51,.58-.72,1.9-1.84,2.05-5.44,.27-7.36-.37-.4-.48-.81-.46-1.3h0Z"/><path class="cls-23" d="M1084.39,473.74c-.03,.5,.09,.91,.46,1.3,1.78,1.92,1.63,5.51-.27,7.36-.22,.22-.54,.35-.58,.72,1.47-.25,2.7-2.06,3.1-4.53,1.27,2.36,.73,4.72-1.38,6.48-.76,.63-.37,1.56-.23,2.34,.18,1.02,.42,1.93,0,3.02-.71,1.83-1.98,2.56-3.88,2.72,.03-.76,.9-1.35,.31-2.15-.55,1.1-1.07,2.13-2.25,2.73-1.21,.62-2.36,.29-3.7,0,.87,1.15,2,.81,2.95,.96,.19,1.27-.29,2.33-1.44,2.89-1.25,.61-2.06,1.48-2.5,2.84-.82,2.52-3.35,3.34-5.63,2.68-.57-.16-1.05-.18-1.69,.03-1.08,.35-2.26,.38-3.3-.46-1.27-1.02-2.63-.89-3.67,.41-2.8,3.53-8.08,2.4-9.6-1.02-.2-.44-.5-.63-.99-.74-1.49-.32-2.74-1.03-3.59-2.35-.2-.32-.51-.44-.9-.5-4.02-.61-5.51-2.21-5.95-6.31-.01-.11-.09-.21-.18-.39-1.1,.48-2.13,1.35-3.44,.67-1.08-.56-2.13-1.09-2.19-2.57-.03-.65-.34-1.25-.81-1.81-1.27-1.5-.61-4.09,1.22-4.86,.62-.26,.83-.57,.87-1.22,.09-1.33,.92-2.23,2.1-2.64,.66-.23,.81-.52,1.06-1.15,.59-1.47,.6-3.01,.97-4.49,.11-.43,.32-.86,.74-1.06,1.46-.67,2.05-1.98,2.66-3.34,.47-1.04,1.38-1.78,2.52-2.04,1.37-.31,2.61-.78,3.75-1.66,1.74-1.33,3.74-1.18,5.69-.47,.58,.21,.99,.36,1.63-.01,1.77-1.03,3.59-.45,4.65,1.45,.34,.61,.79,.7,1.35,.95,1.61,.72,3.26,.33,4.89,.46,1.49,.12,2.74,.87,3.68,2.02,.39,.48,.71,.69,1.31,.49,.77-.26,1.57-.02,2.17,.34,1.04,.62,1.83,.6,2.81-.17,1.97-1.55,3.6-1.45,5.62,.09,.87,.66,1.93,.39,2.88,.4,1.56,.02,2.4,.6,2.35,2.13-.04,1.1,.53,2.18,.04,3.31-.2,.47-.39,.85-.89,1.09-.58-1.56-.86-3.32-2.74-3.96-.05-.17-.03-.4-.33-.32-.08,.3,.16,.28,.33,.33Z"/><path class="cls-43" d="M1084.39,473.74c-.17-.05-.4-.02-.33-.33,.3-.08,.28,.15,.33,.32,0,0,0,0,0,0Z"/></g><g><path class="cls-9" d="M1048.51,494.24c-.38-.08-.5-.44-.73-.67-.32-.33-.54-.3-.89,.02-.6,.55-1.25,1.05-1.98,1.44,.12-.51,.56-.77,.87-1.12,.37-.4,.81-.73,1.21-1.1,.32-.29,.28-.7-.07-.94-1.07-.71-1.21-1.71-.38-2.73,.1-.12,.21-.22,.1-.39-.11-.17-.21-.34-.2-.55,0-.18,0-.36,0-.57-1.28-.44-1.92-1.38-2.01-2.72-.5-.1-.98,.07-1.48-.11,.33-.23,.71-.21,1.06-.27,.32-.05,.52-.16,.65-.5,.41-1.05,1.23-1.6,2.34-1.72,.24-.03,.45,.04,.65,.17,.23,.15,.41,.06,.38-.21-.03-.29,.12-.54,.1-.82-.42-.39-1.05-.16-1.49-.46,.28-.62,.76-.15,1.17-.3-.25-.79-.32-1.58,.02-2.35-.22-.28-.56-.39-.72-.68-.13-.23-.32,0-.49-.08-.8-.39-1.62-.72-2.34-1.26-.1-.07-.2-.09-.31-.13-.92-.33-1.68-.95-2.58-1.3,.02-.06,.03-.07,.03-.08,.01,0,.03,.02,.04,.02,.23-.09,.44-.06,.66,.03,1.99,.85,3.98,1.69,5.98,2.53,.15,.06,.28,.13,.47,.04,1.37-.68,1.37-.68,2.86-.46,.18-.18,.08-.32-.06-.46-.6-.63-1.19-1.29-1.81-1.9-.16-.16-.21-.32-.26-.51,.25-.11,.4,.01,.58,.15,.65,.54,1.31,1.06,1.97,1.58,.12,.09,.24,.25,.44,.16,.17-.09,.13-.26,.13-.4,0-.59,.12-1.16,.44-1.66,.17-.27,0-.45-.11-.63-.23-.39-.37-.8-.56-1.29,.68,.3,.67,1.06,1.13,1.34,.8-.52,1.52-1.04,2.44-1.07,.22,0,.26-.23,.43-.18,.73,.4,1.59,.59,2.12,1.31,.42-.26,.63-.52,.64-1.01,.02-1.44,.1-2.87,.17-4.31,.02-.45,.11-.89,.18-1.45,.15,.84,.23,1.57,.28,2.31,.07,1.04,.15,2.08,.22,3.12,.04,.56,.38,.87,.95,.8,.3-.03,.58-.11,.88-.05,.19,.04,.26-.09,.32-.24,.03-.09,.1-.13,.19-.1,.07,.03,.17,.06,.14,.17-.18,.57,.42,.66,.59,1.09,.6-.5,1.23-.71,1.96-.48,.23,.08,.31-.15,.4-.29,.58-.86,1.15-1.73,1.73-2.6,.24-.36,.42-.79,.88-.96,.2-.08,.03-.26,.12-.36-.11,.97-.57,1.77-1.12,2.57-.46,.67-.84,1.43-1.11,2.21-.12,.35,.02,.9,.26,1.21,.2,.27,.69,.37,1.07,.44,.25,.05,.43-.26,.66-.39,.22-.12,.41-.24,.55,.07,.06,.12,.14,.18,.28,.14,1.24-.35,2.26,.07,3.14,.94,.15,.15,.26,.25,.5,.1,.19-.12,.43-.08,.62,.11-.1,.28-.43,.27-.57,.53,.32,.6,.41,1.28,.35,2,.5,.08,.95,.23,1.31,.58,.14,.14,.31,.07,.47,.04,1.82-.36,3.63-.73,5.44-1.1,.16-.03,.32-.1,.47,.11-.29,.24-.65,.3-.98,.35-1.31,.22-2.53,.73-3.81,1.05-.72,.18-1.22,.41-1.26,1.28-.02,.49-.46,.83-.95,.99-.26,.09-.42,.21-.46,.51-.03,.23-.17,.43-.3,.62-.19,.29-.1,.52,.24,.59,.35,.07,.71,.11,1.12,.17-.18,.31,.04,.44,.21,.61,.86,.85,1.31,1.83,1,3.08-.06,.25-.27,.61,.12,.8-.48,.5-.9,.98-1.44,1.33-.63,.41-1.3,.64-2.06,.6-.27-.01-.49,.04-.64,.29,.14,.29,.7,.34,.51,.83-.32,.01-.57-.15-.8-.34-.51-.41-.84-.34-1.08,.26-.29,.74-.81,1.19-1.7,1.26,.58,.96,1.36,1.72,1.88,2.68-.32,.09-.42-.09-.54-.21-.55-.57-1.1-1.14-1.63-1.73-.2-.22-.33-.29-.6-.07-.42,.34-.92,.49-1.49,.38-.46-.08-.74,.28-.58,.71,.36,.95,.7,1.91,1.1,2.85,.18,.43,.06,.93,.43,1.29-.91-1.22-1.49-2.62-2.27-3.98-.55,.14-1.1,.43-1.7,.37-.31-.03-.51,.05-.55,.36-.33-.05-.18-.45-.49-.56-.4-.14-.7-.24-1.09,.1-.54,.47-1.2,.37-1.87,.05-.4,1.07-.33,2.23-.84,3.25-.34-.97-.03-1.95-.07-2.98-.64-.1-1.15-.42-1.47-1.05-.33,.31-.23,.85-.67,1.1-.14-.32-.07-.62-.02-.93,.03-.15,.14-.34-.06-.45-.16-.09-.33-.09-.5,.05-.69,.56-1.48,.79-2.37,.61-.17-.03-.28,.05-.41,.12-.4,.21-.81,.41-1.26,.4-.42,0-.68,.19-.9,.5-.12,.17-.26,.3-.5,.29,.06-.4,.56-.71,.23-1.17,.58-.26,1.2-.47,1.66-.95,.1-.1,.21-.13,.36-.1,.65,.1,1.32,.37,1.94-.13,.1-.08,.3-.01,.43-.06,.41-.15,1,0,1.11-.7,.03-.17,.33-.42,.57-.36,.59,.14,1.17,.13,1.76-.02,.18-.05,.33,0,.48,.15,.97,.95,2.13,1.37,3.5,1.25,1.35-.12,2.36-.79,3.14-1.83,.24-.33,.39-.35,.71-.17,1.52,.86,3.89,.18,4.51-1.68,.09-.26,.2-.34,.46-.3,.45,.07,.86-.1,1.22-.31,.21-.12,.38-.19,.62-.19,.44-.01,.89-.11,1.24-.43,.76-.69,.77-1.93-.01-2.67-.19-.18-.29-.35-.32-.62-.05-.45-.16-.88-.53-1.24-.32-.31-.76-.35-1.12-.61,.25-.33,.52-.61,.71-.93,.19-.33,.35-.69,.41-1.05,.06-.36,.16-.66,.52-.8-.08-.25-.03-.54-.38-.59-.13-.02-.15-.17-.15-.29-.06-.8-.49-1.39-1.05-1.93-.29-.28-.57-.53-.49-1.04,.12-.75-.74-1.64-1.41-1.7-.97-.08-1.73,.37-2.02,1.28-.06,.19,0,.43-.15,.59-.12-.02-.19-.07-.22-.15-.37-.89-1.24-1.25-1.98-1.68-.59-.34-1.35-.36-2.02-.18-.46,.13-.65-.07-.89-.35-1-1.17-2.28-1.58-3.77-1.28-.43,.09-.72,.08-1.06-.22-.65-.57-1.74-.44-2.32,.21-.71,.79-.62,1.6-.06,2.44-2.06-.18-3.78,1.09-3.4,3.56-.11,.14-.29,.15-.44,.19-1.75,.4-2.87,1.96-2.93,3.6-.02,.46-.02,.89-.16,1.35-.37,1.2-.21,2.38,.55,3.42,.14,.19,.21,.36,.13,.59-.21,.67-.15,1.34,.02,2,.06,.24,.02,.38-.14,.57-.46,.55-.7,1.16-.39,1.87,.11,.26,.14,.54,.13,.82Z"/><path class="cls-44" d="M1048.51,494.24c.01-.28-.01-.56-.13-.82-.31-.72-.07-1.33,.39-1.87,.16-.19,.2-.33,.14-.57-.17-.66-.23-1.33-.02-2,.07-.23,0-.41-.13-.59-.77-1.04-.93-2.22-.55-3.42,.14-.46,.14-.89,.16-1.35,.07-1.65,1.18-3.21,2.93-3.6,.16-.04,.33-.05,.44-.19-.38-2.47,1.33-3.73,3.4-3.56-.56-.84-.65-1.65,.06-2.44,.58-.65,1.66-.78,2.32-.21,.35,.3,.64,.3,1.06,.22,1.49-.3,2.77,.11,3.77,1.28,.24,.28,.43,.48,.89,.35,.67-.19,1.43-.17,2.02,.18,.74,.43,1.61,.79,1.98,1.68,.03,.08,.1,.13,.22,.15,.15-.16,.08-.39,.15-.59,.29-.91,1.05-1.36,2.02-1.28,.67,.06,1.53,.95,1.41,1.7-.08,.51,.2,.76,.49,1.04,.55,.54,.99,1.13,1.05,1.93,0,.11,.03,.27,.15,.29,.35,.05,.3,.34,.38,.59-.36,.14-.46,.44-.52,.8-.06,.36-.23,.73-.41,1.05-.18,.32-.45,.6-.71,.93,.36,.26,.8,.29,1.12,.61,.37,.36,.47,.79,.53,1.24,.03,.28,.13,.44,.32,.62,.78,.74,.78,1.99,.01,2.67-.35,.31-.8,.41-1.24,.43-.25,0-.41,.07-.62,.19-.37,.21-.78,.38-1.22,.31-.26-.04-.38,.04-.46,.3-.62,1.86-2.99,2.54-4.51,1.68-.32-.18-.47-.16-.71,.17-.78,1.04-1.78,1.72-3.14,1.83-1.37,.12-2.53-.3-3.5-1.25-.15-.15-.3-.2-.48-.15-.58,.15-1.16,.17-1.76,.02-.24-.06-.54,.19-.57,.36-.11,.69-.7,.55-1.11,.7-.13,.05-.33-.01-.43,.06-.62,.5-1.29,.23-1.94,.13-.15-.02-.26,0-.36,.1-.46,.48-1.08,.69-1.66,.95-.5-.04-.9-.27-1.23-.65Zm3.17-2.64c-.82-.03-1.13-.69-1.55-1.25-.17,.16-.2,.33-.23,.54-.06,.51,.29,.87,.41,1.31,.16,.61,.56,.74,1.18,.57,.38-.11,.76-.34,1.19-.18,.98,.37,1.64,.22,2.24-.63,.3-.42,.61-.52,1.09-.4,.28,.07,.63,.07,.9-.12,.21-.15,.37-.1,.57,.04,.51,.35,1.09,.5,1.69,.37,.66-.14,1.27-.49,1.99-.39,.25,.03,.44,.02,.65,.22,.64,.63,1.43,.64,2.01,.03,.21-.22,.39-.21,.65-.2,.86,.05,1.66-.12,2.2-.85,.35-.48,.78-.81,1.29-1.1,.42-.24,.7-.64,.76-1.1,.08-.61,.16-1.2,.66-1.64,.14-.13,.18-.32,.17-.51-.03-.63-.2-1.24-.14-1.89,.03-.28,.05-.41,.29-.58,.42-.3,.64-.76,.52-1.29-.06-.26-.01-.41,.2-.58,.63-.52,.59-1.62-.09-2.07-.25-.17-.45-.37-.53-.62-.2-.58-.68-.67-1.17-.76-.6-.12-.9,.35-1.28,.67-.06-.06-.1-.09-.12-.13-.66-1.57-1.44-2.03-3.1-1.8-.16,.02-.3,0-.42-.09-.49-.42-1.07-.56-1.7-.51-.21,.02-.35-.02-.48-.18-1-1.18-3.23-1.01-3.92,.72-.26,.64-.78,.85-1.4,.59-.51-.21-.97-.06-1.36,.21-.23,.16-.42,.21-.66,.21-.98,0-1.89,.63-1.92,1.72-.02,.59-.23,1.03-.66,1.42-.39,.36-.45,.83-.23,1.31,.39-.05,.8-.32,1.28,.03-.56,.05-1.06,.05-1.47,.44-.4,.38-.48,.85-.57,1.35-.33-.25-.05-.59-.13-.89-.73,.29-1.15,.73-1.22,1.53-.04,.48,.16,.82,.35,1.2,.15,.29,.41,.61,.19,.95-.63,.94-.57,1.94,.21,2.73-.13-1.02,.15-1.89,.7-2.16,.03,.15-.08,.24-.14,.35-.54,.95-.17,2.39,.76,2.95,.19,.11,.29,.26,.33,.46h0Z"/><path class="cls-23" d="M1051.68,491.61c-.05-.2-.14-.35-.33-.46-.93-.55-1.29-1.99-.76-2.95,.06-.11,.17-.2,.14-.35-.55,.27-.83,1.14-.7,2.16-.78-.79-.84-1.78-.21-2.73,.23-.34-.04-.66-.19-.95-.19-.38-.39-.72-.35-1.2,.06-.81,.48-1.25,1.22-1.53,.08,.3-.2,.64,.13,.89,.09-.5,.17-.97,.57-1.35,.41-.39,.9-.39,1.47-.44-.48-.35-.89-.09-1.28-.03-.23-.48-.16-.96,.23-1.31,.42-.39,.64-.83,.66-1.42,.03-1.1,.93-1.72,1.92-1.72,.25,0,.44-.05,.66-.21,.39-.26,.85-.41,1.36-.21,.62,.26,1.15,.04,1.4-.59,.7-1.73,2.92-1.9,3.92-.72,.13,.15,.27,.19,.48,.18,.63-.05,1.21,.09,1.7,.51,.12,.1,.26,.12,.42,.09,1.66-.23,2.44,.23,3.1,1.8,.02,.04,.06,.07,.12,.13,.38-.32,.69-.79,1.28-.67,.49,.1,.97,.18,1.17,.76,.09,.25,.28,.45,.53,.62,.68,.45,.72,1.55,.09,2.07-.22,.18-.26,.32-.2,.58,.12,.54-.1,.99-.52,1.29-.24,.17-.26,.3-.29,.58-.06,.65,.12,1.26,.14,1.89,0,.18-.03,.38-.17,.51-.5,.44-.58,1.02-.66,1.64-.06,.47-.34,.87-.76,1.1-.51,.28-.94,.62-1.29,1.1-.53,.73-1.34,.91-2.2,.85-.26-.02-.44-.03-.65,.2-.58,.62-1.37,.6-2.01-.03-.21-.2-.4-.19-.65-.22-.72-.1-1.33,.25-1.99,.39-.61,.13-1.19-.02-1.69-.37-.21-.14-.36-.19-.57-.04-.27,.19-.62,.19-.9,.12-.49-.12-.8-.02-1.09,.4-.6,.85-1.25,1-2.24,.63-.42-.16-.81,.07-1.19,.18-.62,.18-1.02,.04-1.18-.57-.12-.44-.47-.8-.41-1.31,.02-.21,.06-.38,.23-.54,.41,.55,.73,1.21,1.55,1.25,.04,.06,.06,.16,.17,.09,0-.13-.1-.09-.17-.09Z"/><path class="cls-43" d="M1051.68,491.61c.07,0,.16-.04,.17,.09-.11,.07-.13-.03-.17-.09,0,0,0,0,0,0Z"/></g><g><line class="cls-11" x1="1203.99" y1="360.7" x2="1294.82" y2="360.7"/><path class="cls-9" d="M1254.19,389.49c-.89-1.39-.47-3.25,.93-4.14l38.71-24.66-38.71-24.66c-1.4-.89-1.82-2.75-.93-4.14s2.76-1.8,4.15-.92l42.69,27.19c.86,.55,1.39,1.51,1.39,2.53s-.53,1.98-1.39,2.53l-42.69,27.19c-.5,.32-1.06,.47-1.61,.47-.99,0-1.96-.49-2.54-1.39Z"/></g><text class="cls-8" transform="translate(1329.65 29.77)"><tspan x="0" y="0">Game </tspan><tspan class="cls-42" x="110.63" y="0">ov</tspan><tspan class="cls-26" x="150.55" y="0">er screen</tspan></text><text class="cls-7" transform="translate(1425.27 123.03)"><tspan x="0" y="0">102</tspan></text><text class="cls-4" transform="translate(1426.38 82.65)"><tspan x="0" y="0">HIGH </tspan><tspan class="cls-10" x="39.7" y="0">S</tspan><tspan x="48.69" y="0">CO</tspan><tspan class="cls-45" x="69.74" y="0">R</tspan><tspan x="79.24" y="0">E</tspan></text><text class="cls-19" transform="translate(1416.28 330.81)"><tspan x="0" y="0">47</tspan></text><text class="cls-5" transform="translate(1430.57 352.06)"><tspan class="cls-30" x="0" y="0">S</tspan><tspan x="14.64" y="0">CO</tspan><tspan class="cls-38" x="48.91" y="0">R</tspan><tspan class="cls-39" x="64.38" y="0">E</tspan></text><text class="cls-6" transform="translate(1442.17 448.97)"><tspan x="0" y="0">CO</tspan><tspan class="cls-17" x="16.26" y="0">N</tspan><tspan x="24.68" y="0">TIN</tspan><tspan class="cls-2" x="42.9" y="0">U</tspan><tspan x="50.92" y="0">E</tspan></text><rect class="cls-13" x="1381.09" y="495.21" width="180.1" height="38.92"/><text class="cls-6" transform="translate(1446.92 518.47)"><tspan class="cls-34" x="0" y="0">R</tspan><tspan class="cls-36" x="7.34" y="0">E</tspan><tspan class="cls-16" x="14.24" y="0">S</tspan><tspan class="cls-41" x="21.17" y="0">T</tspan><tspan class="cls-40" x="26.81" y="0">A</tspan><tspan class="cls-1" x="34.33" y="0">R</tspan><tspan x="41.75" y="0">T</tspan></text><rect id="Screen-4" class="cls-12" x="1329.65" y="49.09" width="282.98" height="571.79" rx="38.26" ry="38.26"/><text class="cls-18" transform="translate(1365.45 215.2)"><tspan x="0" y="0">GAME OVER</tspan></text></g></g></svg>