<?xml version="1.0" encoding="UTF-8"?><svg id="Camada_2" xmlns="http://www.w3.org/2000/svg" xmlns:xlink="http://www.w3.org/1999/xlink" viewBox="0 0 288.95 642.83"><defs><style>.cls-1{fill:#fff;}.cls-2{letter-spacing:-.03em;}.cls-3{fill:aqua;}.cls-4{fill:#d4145a;}.cls-5,.cls-6{fill:#f7931e;}.cls-7{fill:#1f2121;}.cls-8,.cls-9{fill:#0071bc;}.cls-6,.cls-9{font-family:AllRoundGothic-Demi, 'All Round Gothic';font-size:24.22px;}.cls-10{fill:#29abe2;}.cls-11{fill:url(#Gradiente_sem_nome_67);stroke:#000;stroke-miterlimit:10;stroke-width:3px;}</style><radialGradient id="Gradiente_sem_nome_67" cx="-121.65" cy="297.96" fx="-121.65" fy="297.96" r="421.09" gradientTransform="translate(-5.41 -266.93) rotate(-.55) scale(1 1.89)" gradientUnits="userSpaceOnUse"><stop offset="0" stop-color="#fff" stop-opacity="0"/><stop offset=".48" stop-color="#fef9f9" stop-opacity="0"/><stop offset=".65" stop-color="#fee3e4" stop-opacity=".04"/><stop offset=".77" stop-color="#fcbdc0" stop-opacity=".08"/><stop offset=".87" stop-color="#fa878d" stop-opacity=".15"/><stop offset=".96" stop-color="#f8424b" stop-opacity=".24"/><stop offset="1" stop-color="#f7121e" stop-opacity=".3"/></radialGradient></defs><g id="Game_mechanics"><g id="Player_push_left"><rect id="Screen" class="cls-11" x="3.72" y="1.5" width="282.98" height="571.79" rx="38.26" ry="38.26"/><g id="Spaceship"><g><rect class="cls-3" x="203.33" y="456.85" width="14.28" height="12.54"/><path class="cls-7" d="M202.61,455.88h15.67v14.49h-15.67v-14.49Zm14.3,1.95h-12.88s0,10.59,0,10.59h12.88s0-10.59,0-10.59Z"/></g><g><polygon class="cls-3" points="201.02 469.16 190.64 453.77 190.64 443.18 201.02 453.99 201.02 469.16"/><path class="cls-7" d="M201.72,453.71v17.72s-11.77-17.44-11.77-17.44v-12.54s11.77,12.27,11.77,12.27Zm-1.39,13.18v-12.6s-8.98-9.38-8.98-9.38v8.66s8.98,13.32,8.98,13.32Z"/></g><g><polygon class="cls-4" points="190.64 463.98 190.64 436.05 185.93 440.79 185.93 448.99 190.64 463.98"/><path class="cls-7" d="M191.34,468.52l-6.11-19.43v-8.6s6.11-6.11,6.11-6.11v34.15Zm-4.72-19.63l3.33,10.57v-21.72s-3.33,3.33-3.33,3.33v7.83Z"/></g><g><polygon class="cls-4" points="205.5 426.41 210.46 409.95 215.39 426.41 219.87 442.8 219.87 457.97 210.46 467.85 201.04 457.97 201.04 442.8 205.5 426.41"/><path class="cls-7" d="M200.34,458.23v-15.53s4.5-16.49,4.5-16.49l5.61-18.7,5.61,18.72,4.48,16.39,.02,.1v15.53s-10.11,10.61-10.11,10.61l-10.11-10.63Zm18.82-.54v-14.79s-4.44-16.27-4.44-16.27l-4.28-14.26-4.26,14.24-4.44,16.29v14.79s8.72,9.16,8.72,9.16l8.72-9.16h-.02Z"/></g><g><polygon class="cls-3" points="206.67 444.65 210.46 438.16 214.22 444.65 217.64 451.12 217.64 457.11 210.46 461.02 203.25 457.11 203.25 451.12 206.67 444.65"/><path class="cls-7" d="M202.55,457.53v-6.57s3.5-6.63,3.5-6.63l4.4-7.57,4.38,7.55,3.5,6.65v6.57s-7.88,4.28-7.88,4.28l-7.9-4.28Zm14.4-6.23l-3.33-6.31-3.17-5.46-3.17,5.46-3.33,6.31v5.4s6.49,3.52,6.49,3.52l6.49-3.52v-5.4Z"/></g><g><polygon class="cls-3" points="219.85 469.16 230.23 453.77 230.23 443.18 219.85 453.99 219.85 469.16"/><path class="cls-7" d="M230.93,454.01l-11.77,17.44v-17.72s11.77-12.29,11.77-12.29v12.56Zm-10.37,12.88l8.98-13.32v-8.66s-8.98,9.38-8.98,9.38v12.6Z"/></g><g><polygon class="cls-4" points="230.23 463.98 230.23 436.05 234.97 440.79 234.97 448.99 230.23 463.98"/><path class="cls-7" d="M235.64,440.49v8.6s-6.11,19.43-6.11,19.43v-34.15s6.11,6.11,6.11,6.11Zm-1.39,8.38v-7.81s-3.33-3.33-3.33-3.33v21.72s3.33-10.59,3.33-10.59Z"/></g><g><polygon class="cls-3" points="214.7 424.06 212.77 427.75 214.7 436.43 218.8 438.9 214.7 424.06"/><path class="cls-7" d="M214.06,436.86l-2.05-9.22,2.87-5.48,5.06,18.22-5.87-3.52Zm-.58-9.02l1.81,8.14,2.35,1.41-3.17-11.45-1,1.89Z"/></g><g><polygon class="cls-3" points="206.22 424.06 208.15 427.75 206.22 436.43 202.09 438.9 206.22 424.06"/><path class="cls-7" d="M206.02,422.17l2.87,5.48-2.05,9.22-5.87,3.52,5.06-18.22Zm1.39,5.67l-1-1.89-3.17,11.45,2.35-1.41,1.81-8.14Z"/></g><g><rect class="cls-3" x="230.23" y="443.18" width="4.72" height="5.81"/><path class="cls-7" d="M235.66,449.69h-6.11v-7.21h6.11v7.21Zm-4.74-1.39h3.33s0-4.42,0-4.42h-3.33s0,4.42,0,4.42Z"/></g><g><rect class="cls-3" x="185.93" y="443.18" width="4.72" height="5.81"/><path class="cls-7" d="M191.34,449.69h-6.11v-7.21h6.11v7.21Zm-4.72-1.39h3.33s0-4.42,0-4.42h-3.33s0,4.42,0,4.42Z"/></g><rect class="cls-7" x="209.76" y="409.95" width="1.39" height="14.63"/><rect class="cls-7" x="209.76" y="426.11" width="1.39" height="2.57"/><rect class="cls-7" x="209.76" y="430.63" width="1.39" height="1.85"/><g><polygon class="cls-4" points="197.83 464.44 197.83 460.34 195.58 457.13 192.68 456.78 197.83 464.44"/><path class="cls-7" d="M195.96,456.48l2.57,3.64v6.59s-7.31-10.83-7.31-10.83l4.74,.6Zm1.17,4.08l-1.95-2.77-1.1-.14,3.05,4.5v-1.59Z"/></g><g><polygon class="cls-4" points="223.04 464.44 223.04 460.34 225.29 457.13 228.22 456.78 223.04 464.44"/><path class="cls-7" d="M222.34,466.71v-6.59s2.57-3.64,2.57-3.64l4.74-.6-7.31,10.83Zm1.39-6.15v1.59s3.05-4.5,3.05-4.5l-1.1,.14-1.95,2.77Z"/></g><g><path class="cls-3" d="M208.55,468.31h3.8s0-13.5,0-13.5c0-1.06-.86-1.91-1.91-1.91h0c-1.06,0-1.91,.86-1.91,1.91v13.5s.02,0,.02,0Z"/><path class="cls-7" d="M207.84,469.01v-14.2c0-1.43,1.17-2.61,2.61-2.61s2.61,1.17,2.61,2.61v14.2h-5.2s-.02,0-.02,0Zm3.86-1.39v-12.8c0-.68-.54-1.21-1.21-1.21s-1.21,.56-1.21,1.21v12.8s2.41,0,2.41,0h.02Z"/></g></g><text class="cls-6" transform="translate(0 607.61)"><tspan x="0" y="0">Gr</tspan><tspan class="cls-2" x="30.37" y="0">a</tspan><tspan x="44.46" y="0">vitational attraction</tspan></text><text class="cls-9" transform="translate(50.48 636.6)"><tspan x="0" y="0">Player push left</tspan></text><path id="Gravitational_attraction" class="cls-5" d="M242.48,445.42h3.58c8.42-.44,12.05-2.29,13.61-3.81v-17.41s20.86,24.1,20.86,24.1l-20.86,24.1v-17.41c-1.56-1.52-5.19-3.37-13.62-3.81h-3.56c-1.59,0-2.88-1.29-2.88-2.88,0-1.59,1.29-2.88,2.88-2.88Z"/><g id="Player_push"><path class="cls-8" d="M104.46,472.05c-.35,0-.71-.1-1.02-.27l-36.12-20.86c-.62-.36-1.03-1.06-1.03-1.78s.41-1.42,1.03-1.78l36.1-20.85c.3-.17,.67-.27,1.03-.27,1.1,0,2.05,.95,2.05,2.05v5.65c1.69,1.05,8.41,3.32,19.32,5.5,9.01,1.8,18.36,2.71,27.79,2.71h13.47c3.75,0,6.92,2.8,7.23,6.38,.17,1.96-.49,3.91-1.81,5.35-1.32,1.44-3.2,2.27-5.16,2.27h-14.88c-8.04,0-15.95,.65-23.51,1.93-12.12,2.06-20.38,4.44-22.45,5.59v6.33c0,1.1-.95,2.05-2.05,2.05Z"/><path class="cls-10" d="M104.46,428.24s.05,.02,.05,.05v6.37c.23,1.6,9.68,4.49,20.93,6.73,9.28,1.85,18.72,2.75,28.18,2.75h13.47c2.64,0,5.01,1.93,5.24,4.55,.26,2.96-2.07,5.45-4.98,5.45h-14.88c-7.99,0-15.97,.63-23.84,1.96-12.49,2.12-23.83,5.13-24.12,6.75,0,0,0,.01,0,.02v7.12s-.02,.05-.05,.05c0,0-.02,0-.03,0l-36.11-20.85s-.03-.07,0-.09l36.11-20.85s.02,0,.03,0m0-4c-.7,0-1.42,.19-2.03,.54l-36.11,20.85c-1.25,.72-2.03,2.07-2.03,3.51s.78,2.79,2.03,3.51l36.11,20.85c.61,.35,1.32,.54,2.03,.54,2.23,0,4.05-1.82,4.05-4.05v-5.03c3-1.17,10.61-3.19,20.79-4.91,7.45-1.26,15.25-1.91,23.17-1.91h14.88c2.52,0,4.93-1.06,6.63-2.92,1.7-1.85,2.55-4.36,2.33-6.87-.4-4.6-4.45-8.21-9.22-8.21h-13.47c-9.29,0-18.51-.9-27.4-2.67-9.1-1.81-15.22-3.68-17.71-4.76v-4.42c0-2.23-1.82-4.05-4.05-4.05h0Z"/></g><g id="Finger_Input"><g><path d="M209.27,552.2c-.66-2.74-2.18-5.22-2.65-7.94-.74-4.3-1.05-8.67-.98-13.06,.06-4.37,1.33-8.47,2.46-12.62,1.43-5.28-2.39-9.39-7.72-8.33-3.61,.72-6.11,3.16-8.35,5.9-1.64,2.01-2.63,4.4-3.64,6.76-.94-.26-1.31-.87-1.78-1.34-9.68-9.64-19.34-19.29-29.04-28.91-2.79-2.77-7.19-3.4-10.36-1.61-3.72,2.1-5.39,5.93-4.51,10.09,.51,2.38,2.2,3.88,3.77,5.47,2.81,2.85,5.65,5.66,8.53,8.54-5.82,3.01-7.94,6.85-6.06,12.93-7.04,3.05-8.18,7.76-6.19,13.42-.39,.22-.67,.41-.98,.54-6.88,3.01-8.17,9.73-2.9,15,5.65,5.65,11.33,11.27,16.92,16.97,5.82,5.94,12.48,10.38,20.75,12.04,7.69,1.55,14.83,.51,20.89-4.86,1.94-1.72,3.65-3.69,5.51-5.49,6.79-6.57,8.5-14.49,6.33-23.49Zm-7.08,18.52c-2.47,3.08-5.31,5.89-8.38,8.38-3.37,2.73-7.38,3.76-10.43,3.55-9.66-.1-16.62-3.65-22.52-9.27-6.58-6.25-12.88-12.78-19.31-19.2-1.24-1.24-1.84-2.48-1.81-3.77,0-.78,.24-1.57,.7-2.38,1.14-2,3.17-2.92,5.41-2.27,1.85,.54,2.89,2.2,4.23,3.43,1.46,1.33,2.82,2.76,4.22,4.16,1.06,1.06,2.23,1.86,3.49,.45,.46-.52,.63-1,.61-1.46-.06-.79-.68-1.51-1.36-2.19-3.19-3.18-6.37-6.36-9.53-9.57-1.11-1.13-1.67-2.36-1.69-3.56-.04-1.19,.46-2.35,1.48-3.33,2.06-1.98,4.76-1.91,6.93,.23,3.3,3.26,6.57,6.56,9.85,9.84,1,1,2.13,1.73,3.34,.43,.44-.48,.64-.94,.65-1.39,0-.75-.48-1.46-1.15-2.12-4.26-4.24-8.5-8.49-12.75-12.74-1.09-1.09-1.69-2.41-1.76-3.69-.09-1.27,.32-2.51,1.26-3.47,2.07-2.11,4.67-2.08,7.04,.24,4.24,4.15,8.41,8.39,12.62,12.58,.43,.43,.87,.88,1.37,1.22,.85,.57,1.7,.42,2.42-.29,.43-.43,.68-.91,.68-1.41-.01-.31-.12-.62-.33-.94-.38-.56-.87-1.05-1.35-1.53-9.27-9.27-18.55-18.54-27.81-27.82-1.31-1.32-1.9-2.87-1.83-4.31,.07-1.87,1.25-3.55,3.39-4.26,2.22-.74,3.94,.14,5.51,1.72,7.36,7.41,14.76,14.79,22.15,22.18,3.43,3.43,6.86,6.86,10.29,10.28,.73,.73,1.46,1.53,2.65,1.07,1.15-.44,1.3-1.44,1.42-2.5,.56-5.21,2.97-9.3,7.43-12.11,1.33-.83,2.84-1.42,4.2-.35,.71,.56,.95,1.24,.94,1.96,0,.72-.24,1.49-.51,2.24-1.79,4.86-2.11,9.85-2.09,14.9,0,1.68,.05,3.37,.08,5.07,.11,4.93,2.03,9.26,3.23,13.84,.63,2.41,.98,4.8,.94,7.13-.05,3.89-1.18,7.62-3.9,11.01Z"/><path class="cls-1" d="M201.9,538.82c-.04-1.71-.08-3.42-.08-5.12-.02-5.07,.3-10.08,2.09-14.96,.27-.73,.51-1.48,.51-2.18,0-.7-.25-1.36-.94-1.91-1.36-1.07-2.87-.48-4.2,.35-4.46,2.81-6.87,6.9-7.43,12.11-.11,1.06-.27,2.06-1.42,2.5-1.2,.46-1.92-.34-2.65-1.07-3.43-3.42-6.86-6.85-10.29-10.28-7.39-7.39-14.79-14.76-22.15-22.18-1.57-1.58-3.29-2.46-5.51-1.72-2.12,.7-3.29,2.36-3.39,4.2-.05,1.42,.53,2.96,1.83,4.26,9.26,9.28,18.54,18.54,27.81,27.82,.48,.48,.98,.97,1.35,1.53,.23,.34,.33,.67,.33,.99,.02,.53-.23,1.03-.68,1.47-.71,.71-1.56,.85-2.42,.29-.51-.34-.94-.79-1.37-1.22-4.21-4.19-8.37-8.43-12.62-12.58-2.38-2.32-4.97-2.35-7.04-.24-.93,.95-1.34,2.16-1.26,3.41,.09,1.27,.69,2.56,1.76,3.63,4.25,4.24,8.49,8.5,12.75,12.74,.69,.68,1.18,1.41,1.15,2.18,0,.47-.19,.95-.65,1.44-1.21,1.3-2.34,.57-3.34-.43-3.28-3.28-6.55-6.57-9.85-9.84-2.17-2.14-4.87-2.21-6.93-.23-1.01,.97-1.5,2.11-1.48,3.28,.04,1.18,.6,2.39,1.69,3.5,3.16,3.21,6.34,6.39,9.53,9.57,.7,.7,1.33,1.43,1.36,2.24,.03,.47-.13,.98-.61,1.52-1.25,1.41-2.43,.61-3.49-.45-1.39-1.4-2.76-2.83-4.22-4.16-1.34-1.23-2.39-2.89-4.23-3.43-2.24-.66-4.28,.27-5.41,2.27-.45,.79-.68,1.56-.7,2.32,0,1.26,.59,2.49,1.81,3.71,6.42,6.41,12.73,12.95,19.31,19.2,5.91,5.62,12.86,9.17,22.52,9.27,3.06,.21,7.07-.82,10.43-3.55,3.07-2.49,5.91-5.3,8.38-8.38,2.71-3.38,3.84-7.09,3.9-10.96,.03-2.31-.32-4.68-.94-7.07-1.2-4.58-3.12-8.91-3.23-13.84Z"/></g><path class="cls-8" d="M161.58,479.31c-.7-.19-1.2-.39-1.55-.92-.04-.94,.46-1.62,1.15-2.2,.92-.07,1.39,.48,1.79,1.16-.15,.85-.57,1.5-1.39,1.95Z"/><path class="cls-8" d="M127.43,501.38c.67,.59,.68,1.23,.61,1.86-.7,.62-1.42,.85-2.27,.69-.59-.58-.76-1.24-.5-2.02,.68-.52,1.43-.63,2.16-.53Z"/><path class="cls-8" d="M126.59,505.96c.61-.59,1.35-.8,2.1-.81,.64,.44,.89,.97,.91,1.66-.51,.78-1.25,1.15-2.19,1.17-.61-.53-.93-1.16-.82-2.01Z"/><path class="cls-8" d="M131.29,512.99c.5-.7,.86-1.28,1.55-1.55,.78,.06,1.15,.62,1.5,1.23-.09,.91-.79,1.36-1.31,1.93-1.04-.12-1.51-.68-1.74-1.62Z"/><path class="cls-8" d="M141.03,516.27c.27,.9-.17,1.57-.51,2.25-.86,.28-1.52,.14-2.07-.47-.25-.83,.22-1.44,.53-2.06,.82-.52,1.43-.17,2.05,.28Z"/><path class="cls-8" d="M153.13,473.41c.82-.22,1.47-.21,2.03,.35,.35,.87-.15,1.55-.39,2.16-.77,.49-1.31,.19-1.85-.05-.42-.86-.23-1.62,.21-2.47Z"/><path class="cls-8" d="M156.58,476.5c.06-.88,.2-1.59,.78-2.16,.83-.07,1.43,.28,1.95,.8,.04,1.02-.35,1.73-1.11,2.24-.71,.04-1.16-.32-1.62-.88Z"/><path class="cls-8" d="M129.97,511.47c-.83-.26-1.25-.74-1.46-1.49,.36-.85,1.05-1.31,1.93-1.52,.71,.31,1.05,.86,1.24,1.55-.27,.92-1.11,1.09-1.71,1.46Z"/><path class="cls-8" d="M164.59,478.75c.89,.32,1.35,.78,1.62,1.45-.2,.91-1.03,1.17-1.6,1.64-.79-.2-1.32-.55-1.59-1.24,.23-.87,.89-1.33,1.57-1.85Z"/><path class="cls-8" d="M127.24,499.52c-.78,.43-1.48,.59-2.19,.32-.6-.63-.5-1.28-.34-1.92,.8-.59,1.58-.49,2.36-.21,.53,.54,.5,1.1,.17,1.81Z"/><path class="cls-8" d="M170.6,487.61c-.64,.65-1.31,.88-2.07,.89-.74-.33-.78-1.02-.93-1.59,.4-.84,1.12-1.01,1.86-1.21,.98,.22,1.13,.97,1.15,1.91Z"/><path class="cls-8" d="M171.79,491.68c-.78,.48-1.47,.64-2.2,.55-.71-.48-.78-1.11-.7-1.77,.67-.73,1.42-.88,2.24-.76,.7,.48,.67,1.16,.65,1.98Z"/><path class="cls-8" d="M135.83,513.87c.83,.05,1.26,.45,1.62,.93,.07,.93-.33,1.59-.98,2.16-.85,.11-1.39-.32-1.8-1.01,.02-.88,.46-1.51,1.17-2.07Z"/><path class="cls-8" d="M167.41,481.93c.85,.43,1.21,.95,1.29,1.68-.37,.83-1.13,1.05-1.76,1.3-.79-.26-1.07-.77-1.27-1.34,.27-.9,1.01-1.22,1.73-1.64Z"/><path class="cls-8" d="M152.22,482.41c-.23-.77-.07-1.19,.32-1.56,.67-.25,1.29-.16,1.91,.54-.17,1.53-.93,1.76-2.24,1.02Z"/><path class="cls-8" d="M134.49,501.4c.55,.52,.69,1.02,.62,1.57-.2,.43-.57,.64-.98,.68-.92,.08-1.06-.64-1.24-1.33,.18-.87,.82-.94,1.6-.92Z"/><path class="cls-8" d="M155.47,483.51c.04-.74,.24-1.21,.81-1.49,.77-.05,1.22,.4,1.65,.99-.55,1.51-1.35,1.52-2.46,.49Z"/><path class="cls-8" d="M162.22,491.1c.43-.48,.92-.58,1.49-.4,.54,.41,.69,.96,.58,1.57-.47,.61-1.01,.71-1.65,.47-.5-.46-.62-1.01-.42-1.63Z"/><path class="cls-8" d="M136.07,504.57q1.2,1.41-.18,2.39-.76-.59-1.19-1.47c.21-.57,.66-.82,1.37-.92Z"/><path class="cls-8" d="M138.7,509.62c-.78-.11-1.23-.45-1.51-1.05-.02-.72,.45-1.06,1.02-1.3,.62,0,.98,.39,1.3,.84,.21,.72-.21,1.11-.81,1.51Z"/><path class="cls-8" d="M150.67,472.67c.73,1.38,.84,2.25-.43,3.18-.87-1.19-.92-2.05,.43-3.18Z"/><path class="cls-8" d="M159.59,484.22c.67,.32,1,.71,1.27,1.31-.2,.24-.36,.55-.61,.72-.84,.57-1.35,.04-1.79-.62-.04-.81,.33-1.26,1.14-1.41Z"/><path class="cls-8" d="M127.66,495.46c-1.36,.62-2.3,.8-2.99-.59,1.17-.95,2.04-.73,2.99,.59Z"/><path class="cls-8" d="M160.65,488.22c.28-.71,.66-1.03,1.28-1.05,.62,.25,.89,.75,.98,1.55-.94,1.06-1.65,.88-2.26-.51Z"/><path class="cls-8" d="M132.28,498.13c1.53-.45,2.06,.11,1.92,1.46-.47,.56-.97,.58-1.55,.39-.52-.44-.5-1.03-.37-1.86Z"/><path class="cls-8" d="M140.42,510.78c0-.81,.23-1.25,.85-1.59,1.17,.18,1.72,.71,1.05,1.93-.81,.49-1.32,.05-1.9-.34Z"/><path class="cls-8" d="M143.55,516.73c.53,1.4,.59,2.32-1.04,2.93-.26-1.37-.22-2.22,1.04-2.93Z"/><path class="cls-8" d="M169.24,494.48c.92-.96,1.77-.82,2.69-.5-.48,1.54-.89,1.63-2.69,.5Z"/><path class="cls-8" d="M134.39,495.51c-.91,1.18-1.51,1.04-2.23,.3,.59-1.11,1.24-.77,2.23-.3Z"/><path class="cls-8" d="M144.57,512.53c-1-1.18-.47-1.63,.14-2.19,.97,.9,.48,1.42-.14,2.19Z"/><path class="cls-8" d="M149.95,482.3c-.58-.83-.7-1.41,.03-2.04,1.01,.63,1.01,1.21-.03,2.04Z"/><path class="cls-8" d="M164.8,494.84c-.78,.94-1.34,.9-2.12,.28,.56-1.06,1.15-1.07,2.12-.28Z"/></g></g></g></svg>