<?xml version="1.0" encoding="UTF-8"?><svg id="Camada_2" xmlns="http://www.w3.org/2000/svg" viewBox="0 0 285.98 614.71"><defs><style>.cls-1{fill:aqua;}.cls-2{letter-spacing:0em;}.cls-3{fill:#d4145a;}.cls-4{fill:#1f2121;}.cls-5{letter-spacing:0em;}.cls-6{font-family:BDNippori-2005, 'BD Nippori';font-size:54.68px;}.cls-6,.cls-7{fill:#f15a24;}.cls-8{fill:#fff;stroke:#000;stroke-miterlimit:10;stroke-width:3px;}.cls-7{font-family:AllRoundGothic-Demi, 'All Round Gothic';font-size:24.22px;}</style></defs><g id="Game_mechanics"><g id="Player_score"><rect id="Screen" class="cls-8" x="1.5" y="1.5" width="282.98" height="571.79" rx="38.26" ry="38.26"/><g id="Spaceship"><g><rect class="cls-1" x="135.83" y="457.73" width="14.28" height="12.54"/><path class="cls-4" d="M150.83,471.24h-15.67v-14.49h15.67v14.49Zm-14.3-1.95h12.88v-10.59h-12.88v10.59Z"/></g><g><polygon class="cls-1" points="152.42 470.04 162.79 454.65 162.79 444.05 152.42 454.87 152.42 470.04"/><path class="cls-4" d="M163.49,442.32v12.54l-11.77,17.44v-17.72l11.77-12.27Zm-1.39,12.13v-8.66l-8.98,9.38v12.6l8.98-13.32Z"/></g><g><polygon class="cls-3" points="162.79 464.86 162.79 436.93 167.51 441.66 167.51 449.87 162.79 464.86"/><path class="cls-4" d="M162.1,435.25l6.11,6.11v8.6l-6.11,19.43v-34.15Zm4.72,6.69l-3.33-3.33v21.72l3.33-10.57v-7.83Z"/></g><g><polygon class="cls-3" points="147.94 427.29 142.98 410.82 138.04 427.29 133.56 443.68 133.56 458.85 142.98 468.72 152.4 458.85 152.4 443.68 147.94 427.29"/><path class="cls-4" d="M142.98,469.74l-10.11-10.61v-15.53l.02-.1,4.48-16.39,5.61-18.72,5.61,18.7,4.5,16.49v15.53l-10.11,10.63Zm-8.72-11.17l8.72,9.16,8.72-9.16v-14.79l-4.44-16.29-4.26-14.24-4.28,14.26-4.44,16.27v14.79h-.02Z"/></g><g><polygon class="cls-1" points="146.76 445.53 142.98 439.04 139.22 445.53 135.79 452 135.79 457.99 142.98 461.89 150.19 457.99 150.19 452 146.76 445.53"/><path class="cls-4" d="M142.98,462.69l-7.88-4.28v-6.57l3.5-6.65,4.38-7.55,4.4,7.57,3.5,6.63v6.57l-7.9,4.28Zm-6.49-5.12l6.49,3.52,6.49-3.52v-5.4l-3.33-6.31-3.17-5.46-3.17,5.46-3.33,6.31v5.4Z"/></g><g><polygon class="cls-1" points="133.58 470.04 123.21 454.65 123.21 444.05 133.58 454.87 133.58 470.04"/><path class="cls-4" d="M122.51,442.32l11.77,12.29v17.72l-11.77-17.44v-12.56Zm10.37,12.84l-8.98-9.38v8.66l8.98,13.32v-12.6Z"/></g><g><polygon class="cls-3" points="123.21 464.86 123.21 436.93 118.47 441.66 118.47 449.87 123.21 464.86"/><path class="cls-4" d="M123.91,435.25v34.15l-6.11-19.43v-8.6l6.11-6.11Zm-1.39,25.09v-21.72l-3.33,3.33v7.81l3.33,10.59Z"/></g><g><polygon class="cls-1" points="138.74 424.94 140.67 428.62 138.74 437.3 134.64 439.77 138.74 424.94"/><path class="cls-4" d="M133.5,441.27l5.06-18.22,2.87,5.48-2.05,9.22-5.87,3.52Zm5.46-14.44l-3.17,11.45,2.35-1.41,1.81-8.14-1-1.89Z"/></g><g><polygon class="cls-1" points="147.22 424.94 145.29 428.62 147.22 437.3 151.34 439.77 147.22 424.94"/><path class="cls-4" d="M152.48,441.27l-5.87-3.52-2.05-9.22,2.87-5.48,5.06,18.22Zm-4.64-4.4l2.35,1.41-3.17-11.45-1,1.89,1.81,8.14Z"/></g><g><rect class="cls-1" x="118.49" y="444.05" width="4.72" height="5.81"/><path class="cls-4" d="M117.77,443.36h6.11v7.21h-6.11v-7.21Zm4.74,1.39h-3.33v4.42h3.33v-4.42Z"/></g><g><rect class="cls-1" x="162.79" y="444.05" width="4.72" height="5.81"/><path class="cls-4" d="M162.1,443.36h6.11v7.21h-6.11v-7.21Zm4.72,1.39h-3.33v4.42h3.33v-4.42Z"/></g><rect class="cls-4" x="142.28" y="410.82" width="1.39" height="14.63"/><rect class="cls-4" x="142.28" y="426.99" width="1.39" height="2.57"/><rect class="cls-4" x="142.28" y="431.51" width="1.39" height="1.85"/><g><polygon class="cls-3" points="155.6 465.32 155.6 461.22 157.85 458.01 160.76 457.65 155.6 465.32"/><path class="cls-4" d="M162.22,456.76l-7.31,10.83v-6.59l2.57-3.64,4.74-.6Zm-5.91,6.27l3.05-4.5-1.1,.14-1.95,2.77v1.59Z"/></g><g><polygon class="cls-3" points="130.4 465.32 130.4 461.22 128.15 458.01 125.22 457.65 130.4 465.32"/><path class="cls-4" d="M123.79,456.76l4.74,.6,2.57,3.64v6.59l-7.31-10.83Zm3.96,1.91l-1.1-.14,3.05,4.5v-1.59l-1.95-2.77Z"/></g><g><path class="cls-1" d="M144.88,469.19h-3.8v-13.5c0-1.06,.86-1.91,1.91-1.91h0c1.06,0,1.91,.86,1.91,1.91v13.5h-.02Z"/><path class="cls-4" d="M145.58,469.89h-5.2v-14.2c0-1.43,1.17-2.61,2.61-2.61s2.61,1.17,2.61,2.61v14.2h-.02Zm-3.82-1.39h2.41v-12.8c0-.66-.54-1.21-1.21-1.21s-1.21,.54-1.21,1.21v12.8h.02Z"/></g></g><text class="cls-7" transform="translate(60.09 608.49)"><tspan x="0" y="0">Playe</tspan><tspan class="cls-5" x="64.17" y="0">r</tspan><tspan class="cls-2" x="76.11" y="0">s</tspan><tspan x="87.42" y="0">’ score</tspan></text><text class="cls-6" transform="translate(83.45 57.98)"><tspan x="0" y="0">142</tspan></text></g></g></svg>