<?xml version="1.0" encoding="UTF-8"?><svg id="Camada_2" xmlns="http://www.w3.org/2000/svg" viewBox="0 0 285.98 614.71"><defs><style>.cls-1{fill:aqua;}.cls-2{fill:#d4145a;}.cls-3{fill:#1f2121;}.cls-4{font-family:AllRoundGothic-Demi, 'All Round Gothic';font-size:24.22px;}.cls-4,.cls-5,.cls-6{fill:#29abe2;}.cls-5{stroke:aqua;}.cls-5,.cls-7{stroke-miterlimit:10;stroke-width:3px;}.cls-8{fill:#0071bc;}.cls-7{fill:#fff;stroke:#000;}</style></defs><g id="Game_mechanics"><g id="Spaceship_shoot"><rect id="Screen" class="cls-7" x="1.5" y="1.5" width="282.98" height="571.79" rx="38.26" ry="38.26"/><g id="Spaceship"><g><rect class="cls-1" x="65.53" y="457.73" width="14.28" height="12.54"/><path class="cls-3" d="M80.52,471.24h-15.67v-14.49h15.67v14.49Zm-14.3-1.95h12.88v-10.59h-12.88v10.59Z"/></g><g><polygon class="cls-1" points="82.12 470.04 92.49 454.65 92.49 444.05 82.12 454.87 82.12 470.04"/><path class="cls-3" d="M93.19,442.32v12.54l-11.77,17.44v-17.72l11.77-12.27Zm-1.39,12.13v-8.66l-8.98,9.38v12.6l8.98-13.32Z"/></g><g><polygon class="cls-2" points="92.49 464.86 92.49 436.93 97.21 441.66 97.21 449.87 92.49 464.86"/><path class="cls-3" d="M91.79,435.25l6.11,6.11v8.6l-6.11,19.43v-34.15Zm4.72,6.69l-3.33-3.33v21.72l3.33-10.57v-7.83Z"/></g><g><polygon class="cls-2" points="77.63 427.29 72.68 410.82 67.74 427.29 63.26 443.68 63.26 458.85 72.68 468.72 82.1 458.85 82.1 443.68 77.63 427.29"/><path class="cls-3" d="M72.68,469.74l-10.11-10.61v-15.53l.02-.1,4.48-16.39,5.61-18.72,5.61,18.7,4.5,16.49v15.53l-10.11,10.63Zm-8.72-11.17l8.72,9.16,8.72-9.16v-14.79l-4.44-16.29-4.26-14.24-4.28,14.26-4.44,16.27v14.79h-.02Z"/></g><g><polygon class="cls-1" points="76.46 445.53 72.68 439.04 68.91 445.53 65.49 452 65.49 457.99 72.68 461.89 79.88 457.99 79.88 452 76.46 445.53"/><path class="cls-3" d="M72.68,462.69l-7.88-4.28v-6.57l3.5-6.65,4.38-7.55,4.4,7.57,3.5,6.63v6.57l-7.9,4.28Zm-6.49-5.12l6.49,3.52,6.49-3.52v-5.4l-3.33-6.31-3.17-5.46-3.17,5.46-3.33,6.31v5.4Z"/></g><g><polygon class="cls-1" points="63.28 470.04 52.91 454.65 52.91 444.05 63.28 454.87 63.28 470.04"/><path class="cls-3" d="M52.21,442.32l11.77,12.29v17.72l-11.77-17.44v-12.56Zm10.37,12.84l-8.98-9.38v8.66l8.98,13.32v-12.6Z"/></g><g><polygon class="cls-2" points="52.91 464.86 52.91 436.93 48.17 441.66 48.17 449.87 52.91 464.86"/><path class="cls-3" d="M53.6,435.25v34.15l-6.11-19.43v-8.6l6.11-6.11Zm-1.39,25.09v-21.72l-3.33,3.33v7.81l3.33,10.59Z"/></g><g><polygon class="cls-1" points="68.44 424.94 70.37 428.62 68.44 437.3 64.33 439.77 68.44 424.94"/><path class="cls-3" d="M63.2,441.27l5.06-18.22,2.87,5.48-2.05,9.22-5.87,3.52Zm5.46-14.44l-3.17,11.45,2.35-1.41,1.81-8.14-1-1.89Z"/></g><g><polygon class="cls-1" points="76.92 424.94 74.99 428.62 76.92 437.3 81.04 439.77 76.92 424.94"/><path class="cls-3" d="M82.17,441.27l-5.87-3.52-2.05-9.22,2.87-5.48,5.06,18.22Zm-4.64-4.4l2.35,1.41-3.17-11.45-1,1.89,1.81,8.14Z"/></g><g><rect class="cls-1" x="48.19" y="444.05" width="4.72" height="5.81"/><path class="cls-3" d="M47.47,443.36h6.11v7.21h-6.11v-7.21Zm4.74,1.39h-3.33v4.42h3.33v-4.42Z"/></g><g><rect class="cls-1" x="92.49" y="444.05" width="4.72" height="5.81"/><path class="cls-3" d="M91.79,443.36h6.11v7.21h-6.11v-7.21Zm4.72,1.39h-3.33v4.42h3.33v-4.42Z"/></g><rect class="cls-3" x="71.98" y="410.82" width="1.39" height="14.63"/><rect class="cls-3" x="71.98" y="426.99" width="1.39" height="2.57"/><rect class="cls-3" x="71.98" y="431.51" width="1.39" height="1.85"/><g><polygon class="cls-2" points="85.3 465.32 85.3 461.22 87.55 458.01 90.46 457.65 85.3 465.32"/><path class="cls-3" d="M91.91,456.76l-7.31,10.83v-6.59l2.57-3.64,4.74-.6Zm-5.91,6.27l3.05-4.5-1.1,.14-1.95,2.77v1.59Z"/></g><g><polygon class="cls-2" points="60.09 465.32 60.09 461.22 57.84 458.01 54.92 457.65 60.09 465.32"/><path class="cls-3" d="M53.48,456.76l4.74,.6,2.57,3.64v6.59l-7.31-10.83Zm3.96,1.91l-1.1-.14,3.05,4.5v-1.59l-1.95-2.77Z"/></g><g><path class="cls-1" d="M74.58,469.19h-3.8v-13.5c0-1.06,.86-1.91,1.91-1.91h0c1.06,0,1.91,.86,1.91,1.91v13.5h-.02Z"/><path class="cls-3" d="M75.28,469.89h-5.2v-14.2c0-1.43,1.17-2.61,2.61-2.61s2.61,1.17,2.61,2.61v14.2h-.02Zm-3.82-1.39h2.41v-12.8c0-.66-.54-1.21-1.21-1.21s-1.21,.54-1.21,1.21v12.8h.02Z"/></g></g><text class="cls-4" transform="translate(47.81 608.49)"><tspan x="0" y="0">Spaceship shoot</tspan></text><circle class="cls-5" cx="220.46" cy="102.9" r="7.96"/><circle class="cls-5" cx="154.68" cy="216.84" r="7.96"/><circle class="cls-5" cx="86" cy="330.79" r="7.96"/><g id="Player_push"><path class="cls-8" d="M146.69,460.93c-.22,0-.46-.04-.67-.11l-36.15-13.12c-.79-.29-1.34-1.07-1.34-1.91s.54-1.61,1.33-1.9l36.12-13.11c.22-.08,.48-.12,.71-.12,1.1,0,2.05,.93,2.05,2.03v2.87c2.17,.73,8.71,2.07,19.18,3.38,9.06,1.14,18.46,1.71,27.93,1.71h13.47c3.82,0,6.85,1.93,7.22,4.59,.17,1.2-.21,2.4-1.07,3.38-1.27,1.45-3.47,2.32-5.9,2.32h-14.88c-8.08,0-16.03,.41-23.63,1.22-11.63,1.24-19.76,2.68-22.33,3.46v3.29c0,1.1-.95,2.03-2.05,2.03Z"/><path class="cls-6" d="M146.69,432.65s.05,.01,.05,.03v4.01c.23,1.01,9.68,2.82,20.93,4.23,9.28,1.16,18.72,1.73,28.18,1.73h13.47c2.64,0,5.01,1.21,5.24,2.86,.26,1.86-2.07,3.42-4.98,3.42h-14.88c-7.99,0-15.97,.39-23.84,1.23-12.49,1.33-23.83,3.23-24.12,4.24,0,0,0,0,0,.01v4.48s-.02,.03-.05,.03c0,0-.02,0-.03,0l-36.11-13.11s-.03-.04,0-.06l36.11-13.11s.02,0,.03,0m0-4c-.46,0-.94,.08-1.37,.24l-36.13,13.11c-1.58,.57-2.66,2.11-2.66,3.79s1.07,3.21,2.66,3.79l36.11,13.11c.44,.16,.92,.24,1.39,.24,2.23,0,4.05-1.81,4.05-4.03v-1.74c3.3-.76,10.44-1.94,20.54-3.01,7.53-.8,15.41-1.21,23.42-1.21h14.88c3,0,5.76-1.12,7.4-3.01,1.24-1.42,1.78-3.18,1.54-4.96-.51-3.66-4.38-6.32-9.2-6.32h-13.47c-9.39,0-18.7-.57-27.68-1.7-8.58-1.07-14.56-2.18-17.43-2.9v-1.36c0-2.22-1.82-4.03-4.05-4.03h0Z"/></g></g></g></svg>