<?xml version="1.0" encoding="UTF-8"?><svg id="Camada_2" xmlns="http://www.w3.org/2000/svg" xmlns:xlink="http://www.w3.org/1999/xlink" viewBox="0 0 345.35 645.43"><defs><style>.cls-1{fill:aqua;}.cls-2{letter-spacing:-.02em;}.cls-3{letter-spacing:0em;}.cls-4{fill:#d4145a;}.cls-5{stroke:#000;stroke-miterlimit:10;stroke-width:3px;}.cls-5,.cls-6{fill:none;}.cls-7{fill:#1f2121;}.cls-8,.cls-9{fill:gray;}.cls-10{letter-spacing:-.02em;}.cls-9,.cls-11{font-family:AllRoundGothic-Demi, 'All Round Gothic';font-size:24.22px;}.cls-12{clip-path:url(#clippath);}.cls-13,.cls-11{fill:#ed1e79;}.cls-14{letter-spacing:-.03em;}</style><symbol id="Player_Spaceship" viewBox="0 0 50.43 63.93"><g id="Spaceship"><g><rect class="cls-1" x="18.06" y="49.34" width="14.28" height="12.54"/><path class="cls-7" d="M33.05,62.85h-15.67v-14.49h15.67v14.49Zm-14.3-1.95h12.88v-10.59h-12.88v10.59Z"/></g><g><polygon class="cls-1" points="34.65 61.64 45.02 46.25 45.02 35.66 34.65 46.47 34.65 61.64"/><path class="cls-7" d="M45.72,33.93v12.54l-11.77,17.44v-17.72l11.77-12.27Zm-1.39,12.13v-8.66l-8.98,9.38v12.6l8.98-13.32Z"/></g><g><polygon class="cls-4" points="45.02 56.47 45.02 28.53 49.74 33.27 49.74 41.47 45.02 56.47"/><path class="cls-7" d="M44.32,26.86l6.11,6.11v8.6l-6.11,19.43V26.86Zm4.72,6.69l-3.33-3.33v21.72l3.33-10.57v-7.83Z"/></g><g><polygon class="cls-4" points="30.17 18.9 25.21 2.43 20.27 18.9 15.79 35.28 15.79 50.45 25.21 60.33 34.63 50.45 34.63 35.28 30.17 18.9"/><path class="cls-7" d="M25.21,61.35l-10.11-10.61v-15.53l.02-.1,4.48-16.39L25.21,0l5.61,18.7,4.5,16.49v15.53l-10.11,10.63Zm-8.72-11.17l8.72,9.16,8.72-9.16v-14.79l-4.44-16.29-4.26-14.24-4.28,14.26-4.44,16.27v14.79h-.02Z"/></g><g><polygon class="cls-1" points="28.99 37.13 25.21 30.64 21.44 37.13 18.02 43.61 18.02 49.6 25.21 53.5 32.42 49.6 32.42 43.61 28.99 37.13"/><path class="cls-7" d="M25.21,54.3l-7.88-4.28v-6.57l3.5-6.65,4.38-7.55,4.4,7.57,3.5,6.63v6.57l-7.9,4.28Zm-6.49-5.12l6.49,3.52,6.49-3.52v-5.4l-3.33-6.31-3.17-5.46-3.17,5.46-3.33,6.31v5.4Z"/></g><g><polygon class="cls-1" points="15.81 61.64 5.44 46.25 5.44 35.66 15.81 46.47 15.81 61.64"/><path class="cls-7" d="M4.74,33.93l11.77,12.29v17.72L4.74,46.49v-12.56Zm10.37,12.84l-8.98-9.38v8.66l8.98,13.32v-12.6Z"/></g><g><polygon class="cls-4" points="5.44 56.47 5.44 28.53 .7 33.27 .7 41.47 5.44 56.47"/><path class="cls-7" d="M6.13,26.86V61.01L.02,41.57v-8.6l6.11-6.11Zm-1.39,25.09V30.23l-3.33,3.33v7.81l3.33,10.59Z"/></g><g><polygon class="cls-1" points="20.97 16.55 22.9 20.23 20.97 28.91 16.86 31.38 20.97 16.55"/><path class="cls-7" d="M15.73,32.87l5.06-18.22,2.87,5.48-2.05,9.22-5.87,3.52Zm5.46-14.44l-3.17,11.45,2.35-1.41,1.81-8.14-1-1.89Z"/></g><g><polygon class="cls-1" points="29.45 16.55 27.52 20.23 29.45 28.91 33.57 31.38 29.45 16.55"/><path class="cls-7" d="M34.71,32.87l-5.87-3.52-2.05-9.22,2.87-5.48,5.06,18.22Zm-4.64-4.4l2.35,1.41-3.17-11.45-1,1.89,1.81,8.14Z"/></g><g><rect class="cls-1" x=".72" y="35.66" width="4.72" height="5.81"/><path class="cls-7" d="M0,34.96H6.11v7.21H0v-7.21Zm4.74,1.39H1.41v4.42h3.33v-4.42Z"/></g><g><rect class="cls-1" x="45.02" y="35.66" width="4.72" height="5.81"/><path class="cls-7" d="M44.32,34.96h6.11v7.21h-6.11v-7.21Zm4.72,1.39h-3.33v4.42h3.33v-4.42Z"/></g><rect class="cls-7" x="24.51" y="2.43" width="1.39" height="14.63"/><rect class="cls-7" x="24.51" y="18.6" width="1.39" height="2.57"/><rect class="cls-7" x="24.51" y="23.12" width="1.39" height="1.85"/><g><polygon class="cls-4" points="37.83 56.93 37.83 52.82 40.08 49.62 42.99 49.26 37.83 56.93"/><path class="cls-7" d="M44.44,48.36l-7.31,10.83v-6.59l2.57-3.64,4.74-.6Zm-5.91,6.27l3.05-4.5-1.1,.14-1.95,2.77v1.59Z"/></g><g><polygon class="cls-4" points="12.62 56.93 12.62 52.82 10.37 49.62 7.45 49.26 12.62 56.93"/><path class="cls-7" d="M6.01,48.36l4.74,.6,2.57,3.64v6.59l-7.31-10.83Zm3.96,1.91l-1.1-.14,3.05,4.5v-1.59l-1.95-2.77Z"/></g><g><path class="cls-1" d="M27.11,60.8h-3.8v-13.5c0-1.06,.86-1.91,1.91-1.91h0c1.06,0,1.91,.86,1.91,1.91v13.5h-.02Z"/><path class="cls-7" d="M27.81,61.5h-5.2v-14.2c0-1.43,1.17-2.61,2.61-2.61s2.61,1.17,2.61,2.61v14.2h-.02Zm-3.82-1.39h2.41v-12.8c0-.66-.54-1.21-1.21-1.21s-1.21,.54-1.21,1.21v12.8h.02Z"/></g></g></symbol><clipPath id="clippath"><rect id="Screen" class="cls-6" x="32.49" y="2.14" width="282.35" height="570.5" rx="38.26" ry="38.26"/></clipPath></defs><g id="Game_mechanics"><g id="Spaceship_automatic_movement"><g class="cls-12"><polygon class="cls-8" points="173.67 61.09 124.47 11.89 173.67 42.7 222.87 11.89 173.67 61.09"/><polygon class="cls-8" points="173.67 102.04 124.47 52.84 173.67 83.65 222.87 52.84 173.67 102.04"/><polygon class="cls-8" points="173.67 143 124.47 93.8 173.67 124.61 222.87 93.8 173.67 143"/><polygon class="cls-8" points="173.67 183.95 124.47 134.75 173.67 165.56 222.87 134.75 173.67 183.95"/><polygon class="cls-8" points="173.67 224.91 124.47 175.71 173.67 206.52 222.87 175.71 173.67 224.91"/><polygon class="cls-8" points="173.67 265.86 124.47 216.66 173.67 247.47 222.87 216.66 173.67 265.86"/><polygon class="cls-8" points="173.67 306.81 124.47 257.62 173.67 288.42 222.87 257.62 173.67 306.81"/><polygon class="cls-8" points="173.67 347.77 124.47 298.57 173.67 329.38 222.87 298.57 173.67 347.77"/><polygon class="cls-8" points="173.67 388.72 124.47 339.52 173.67 370.33 222.87 339.52 173.67 388.72"/><polygon class="cls-8" points="173.67 429.68 124.47 380.48 173.67 411.29 222.87 380.48 173.67 429.68"/><polygon class="cls-8" points="173.67 470.63 124.47 421.43 173.67 452.24 222.87 421.43 173.67 470.63"/><polygon class="cls-8" points="173.67 511.59 124.47 462.39 173.67 493.2 222.87 462.39 173.67 511.59"/><polygon class="cls-8" points="173.67 552.54 124.47 503.34 173.67 534.15 222.87 503.34 173.67 552.54"/></g><rect id="Screen-2" class="cls-5" x="31" y="1.5" width="282.98" height="571.79" rx="38.26" ry="38.26"/><rect class="cls-13" x="46.93" y="449.44" width="251.48" height="2.91"/><use width="50.43" height="63.93" transform="translate(147.27 408.39)" xlink:href="#Player_Spaceship"/><text class="cls-11" transform="translate(0 608.49)"><tspan x="0" y="0">Spaceship </tspan><tspan class="cls-10" x="124.45" y="0">v</tspan><tspan class="cls-3" x="137.57" y="0">ertical m</tspan><tspan class="cls-10" x="243.52" y="0">ov</tspan><tspan x="270.37" y="0">ement</tspan></text><text class="cls-9" transform="translate(44.88 639.2)"><tspan x="0" y="0">Bac</tspan><tspan class="cls-14" x="43.9" y="0">k</tspan><tspan class="cls-3" x="56.67" y="0">groud m</tspan><tspan class="cls-2" x="153.75" y="0">ov</tspan><tspan class="cls-3" x="180.6" y="0">ement</tspan></text><polygon class="cls-13" points="41.21 450.89 52.66 439.45 52.66 462.34 41.21 450.89"/><polygon class="cls-13" points="304.13 450.89 292.69 462.34 292.69 439.45 304.13 450.89"/></g></g></svg>